<svg xmlns="http://www.w3.org/2000/svg" width="126.097" height="84.401" viewBox="0 0 126.097 84.401">
  <defs>
    <style>
      .cls-1 {
        fill: #9aadcb;
      }

      .cls-2 {
        fill: #f2f2f2;
      }

      .cls-3 {
        fill: #abc0e2;
      }

      .cls-4 {
        fill: #ccc;
      }

      .cls-5 {
        fill: #ffb8b8;
      }

      .cls-6 {
        fill: #2f2e41;
      }

      .cls-7 {
        fill: #3f3d56;
      }

      .cls-8 {
        opacity: 0.2;
      }
    </style>
  </defs>
  <g id="Group_59" data-name="Group 59" transform="translate(-616 -1759.641)">
    <path id="Path_180" data-name="Path 180" class="cls-1" d="M175.15,83.353c-8.084-.281-15.784-2.89-23.136-5.746s-14.634-6.019-22.524-7.532c-5.075-.973-10.879-1.11-14.967,1.61-3.936,2.623-5.207,7.138-5.891,11.333-.515,3.155-.817,6.475.593,9.429.978,2.051,2.715,3.775,3.916,5.746,4.181,6.835,1.227,15.263-3.3,21.937-2.123,3.131-4.59,6.12-6.229,9.45s-2.4,7.151-.964,10.551c1.423,3.372,4.811,5.9,8.481,7.68,7.456,3.616,16.238,4.65,24.808,5.236,18.964,1.3,38.029.736,57.043.174A167.485,167.485,0,0,0,214,151.714c3.845-.6,7.813-1.563,10.6-3.878a8.883,8.883,0,0,0,2.047-11.6c-3.983-6.182-14.989-7.717-17.777-14.352-1.531-3.651.042-7.718,2.268-11.105,4.776-7.265,12.782-13.638,13.2-21.942.29-5.7-3.56-11.415-9.51-14.114-6.237-2.839-14.887-2.479-19.487,2.2C190.613,81.749,182.287,83.6,175.15,83.353Z" transform="translate(514.114 1690.203)"/>
    <g id="undraw_education_f8ru" transform="translate(621 1764.805)">
      <path id="Path_149" data-name="Path 149" class="cls-2" d="M363.823,584.643v18.1h-45.34a9.054,9.054,0,1,1,0-18.1Z" transform="translate(-297.822 -528.362)"/>
      <path id="Path_150" data-name="Path 150" class="cls-3" d="M358.911,600.019a.7.7,0,0,1-.7.7H311.65a9.536,9.536,0,0,1,0-19.072h46.566a.7.7,0,0,1,0,1.392H311.65a8.144,8.144,0,0,0,0,16.288h46.566A.7.7,0,0,1,358.911,600.019Z" transform="translate(-291.797 -525.78)"/>
      <path id="Path_151" data-name="Path 151" class="cls-4" d="M399.977,612.921H351.253a.139.139,0,1,1,0-.278h48.723a.139.139,0,0,1,0,.278Z" transform="translate(-333.975 -552.464)"/>
      <path id="Path_152" data-name="Path 152" class="cls-4" d="M399.977,636.921H351.253a.139.139,0,1,1,0-.278h48.723a.139.139,0,0,1,0,.278Z" transform="translate(-333.975 -573.123)"/>
      <path id="Path_153" data-name="Path 153" class="cls-4" d="M399.977,660.921H351.253a.139.139,0,1,1,0-.278h48.723a.139.139,0,0,1,0,.278Z" transform="translate(-333.975 -593.782)"/>
      <path id="Path_154" data-name="Path 154" class="cls-4" d="M399.977,684.921H351.253a.139.139,0,1,1,0-.278h48.723a.139.139,0,0,1,0,.278Z" transform="translate(-333.975 -614.441)"/>
      <path id="Path_155" data-name="Path 155" class="cls-2" d="M643.28,420.065l-11.355,14.092L596.62,405.709a9.054,9.054,0,1,1,11.355-14.092Z" transform="translate(-542.237 -360.377)"/>
      <path id="Path_156" data-name="Path 156" class="cls-4" d="M626.893,429.7a.7.7,0,0,1-.979.105l-36.26-29.216a9.536,9.536,0,1,1,11.966-14.851l36.26,29.216a.7.7,0,0,1-.873,1.084l-36.26-29.216A8.144,8.144,0,1,0,590.528,399.5l36.26,29.216A.7.7,0,0,1,626.893,429.7Z" transform="translate(-536.25 -355.328)"/>
      <path id="Path_157" data-name="Path 157" class="cls-4" d="M700.09,441.916l-37.94-30.57a.139.139,0,0,1,.175-.217l37.94,30.57a.139.139,0,0,1-.175.217Z" transform="translate(-601.668 -378.977)"/>
      <path id="Path_158" data-name="Path 158" class="cls-4" d="M685.032,460.6l-37.94-30.57a.139.139,0,0,1,.175-.217l37.94,30.57a.139.139,0,0,1-.175.217Z" transform="translate(-588.706 -395.063)"/>
      <path id="Path_159" data-name="Path 159" class="cls-4" d="M669.974,479.293l-37.94-30.57a.139.139,0,0,1,.175-.217l37.94,30.57a.139.139,0,1,1-.175.217Z" transform="translate(-575.744 -411.15)"/>
      <path id="Path_160" data-name="Path 160" class="cls-4" d="M654.916,497.981l-37.94-30.57a.139.139,0,0,1,.175-.217l37.94,30.57a.139.139,0,1,1-.175.217Z" transform="translate(-562.782 -427.237)"/>
      <path id="Path_161" data-name="Path 161" class="cls-4" d="M331.433,717.922H228.139a.139.139,0,1,1,0-.278H331.433a.139.139,0,0,1,0,.278Z" transform="translate(-228 -642.848)"/>
      <path id="Path_162" data-name="Path 162" class="cls-5" d="M323.56,352.664h-1.591l-.757-6.139h2.349Z" transform="translate(-276.496 -298.285)"/>
      <path id="Path_163" data-name="Path 163" class="cls-6" d="M306.533,387.355H309.6v1.933h-5A1.933,1.933,0,0,1,306.533,387.355Z" transform="translate(-262.197 -333.431)"/>
      <path id="Path_164" data-name="Path 164" class="cls-5" d="M206.765,352.664h-1.591l-.757-6.139h2.349Z" transform="translate(-175.96 -298.285)"/>
      <path id="Path_165" data-name="Path 165" class="cls-6" d="M189.738,387.355h3.069v1.933h-5a1.933,1.933,0,0,1,1.933-1.933Z" transform="translate(-161.662 -333.431)"/>
      <path id="Path_166" data-name="Path 166" class="cls-6" d="M487.471,211.825v-.7a4.49,4.49,0,0,1,4.49-4.49h0a4.49,4.49,0,0,1,4.49,4.49v.7a3.237,3.237,0,0,1-3.237,3.237h-2.506a3.237,3.237,0,0,1-3.237-3.237Z" transform="translate(-451.35 -202.981)"/>
      <circle id="Ellipse_17" data-name="Ellipse 17" class="cls-5" cx="3.419" cy="3.419" r="3.419" transform="translate(37.191 5.483)"/>
      <path id="Path_167" data-name="Path 167" class="cls-5" d="M634.488,376.475" transform="translate(-577.901 -349.173)"/>
      <path id="Path_168" data-name="Path 168" class="cls-5" d="M383.543,326.51a1.305,1.305,0,0,1,1.988.233l2.931-.554.771,1.7-4.15.725a1.312,1.312,0,0,1-1.54-2.1Z" transform="translate(-361.53 -305.857)"/>
      <path id="Path_169" data-name="Path 169" class="cls-4" d="M418.846,283.269l.038.058-4.806,3.166-8.11,2.59a.488.488,0,0,0-.336.52l.177,1.524a.487.487,0,0,0,.586.42l7.633-1.636a2.758,2.758,0,0,0,1.026-.452l5.4-3.842a1.389,1.389,0,0,0-1.569-2.291Z" transform="translate(-380.901 -268.795)"/>
      <path id="Path_170" data-name="Path 170" class="cls-6" d="M446.612,375.968a.629.629,0,0,1-.576-.376l-7.3-18.028a.209.209,0,0,0-.391.022L432.4,375.136a.627.627,0,0,1-.819.4l-2-.749a.625.625,0,0,1-.4-.516c-.9-7.823,6.933-27.568,7.012-27.766l.022-.055,7.138,1.579.015.016c2.848,3.107,5.189,22.7,5.629,26.6a.623.623,0,0,1-.414.661l-1.762.623A.622.622,0,0,1,446.612,375.968Z" transform="translate(-401.111 -323.331)"/>
      <path id="Path_171" data-name="Path 171" class="cls-4" d="M483.227,286.164c-1.729,0-3.658-.345-4.251-1.768l-.014-.033.018-.03c.469-.769,1.088-2.08.755-2.326a2.67,2.67,0,0,1-.945-2.37,5.71,5.71,0,0,1,4-5.218h0a17.763,17.763,0,0,1,1.985-.511,3.38,3.38,0,0,1,2.8.692,3.414,3.414,0,0,1,1.266,2.627c.024,2.524-.364,6.039-2.354,8.453a.619.619,0,0,1-.367.213A17.019,17.019,0,0,1,483.227,286.164Z" transform="translate(-443.876 -260.827)"/>
      <path id="Path_172" data-name="Path 172" class="cls-5" d="M505.742,343.886a1.33,1.33,0,0,1,1.626-.928,1.309,1.309,0,0,1,.2.075l2.225-2.025,1.548,1.043-3.183,2.816a1.328,1.328,0,0,1-1.505.639,1.308,1.308,0,0,1-.913-1.619Z" transform="translate(-467.035 -318.643)"/>
      <path id="Path_173" data-name="Path 173" class="cls-4" d="M523.334,294.267a.625.625,0,0,1-.4-.141l-.878-.717a.626.626,0,0,1,.015-.982l3.681-2.823a.209.209,0,0,0,.039-.292l-2.272-3a1.849,1.849,0,0,1,.124-2.383h0a1.844,1.844,0,0,1,2.49-.2l.014.015,2.372,3.4a2.115,2.115,0,0,1-.05,3.367l-4.767,3.639A.627.627,0,0,1,523.334,294.267Z" transform="translate(-480.926 -268.999)"/>
      <path id="Path_174" data-name="Path 174" class="cls-6" d="M497.965,218.723v-1.7l3.029-1.323,2.888,1.323v1.7a.278.278,0,0,1-.278.278h-5.36A.278.278,0,0,1,497.965,218.723Z" transform="translate(-460.383 -210.783)"/>
      <path id="Path_175" data-name="Path 175" class="cls-6" d="M518.029,184.241a3.124,3.124,0,0,1,1.872-3.623,4.309,4.309,0,0,1,4.2.762,7.093,7.093,0,0,1,2.274,3.771,21.129,21.129,0,0,1,.527,4.44,2.983,2.983,0,1,1-2.859,1.059,3.671,3.671,0,0,0-4.272-5.7C518.938,185.306,517.887,184.4,518.029,184.241Z" transform="translate(-477.558 -180.357)"/>
      <path id="Path_176" data-name="Path 176" class="cls-3" d="M342.878,234.7a14.54,14.54,0,0,1-5.9-1.291.623.623,0,0,1-.369-.571v-5.07a.627.627,0,0,1,.626-.626h11.276a.627.627,0,0,1,.626.626v5.07a.623.623,0,0,1-.369.571h0a14.541,14.541,0,0,1-5.9,1.291Z" transform="translate(-321.494 -220.63)"/>
      <path id="Path_177" data-name="Path 177" class="cls-3" d="M322.44,199.888a.627.627,0,0,1-.243-.049l-8.942-3.773a.626.626,0,0,1,.021-1.163l8.942-3.392a.624.624,0,0,1,.447,0l8.822,3.392a.626.626,0,0,1,.021,1.161l-8.822,3.772a.627.627,0,0,1-.246.05Z" transform="translate(-301.057 -189.924)"/>
      <circle id="Ellipse_18" data-name="Ellipse 18" class="cls-7" cx="0.835" cy="0.835" r="0.835" transform="translate(15.329 11.455)"/>
      <path id="Path_178" data-name="Path 178" class="cls-8" d="M332.325,219.191l-8.822,3.772a.557.557,0,0,1-.435,0l-8.942-3.772a.546.546,0,0,1-.266-.234.557.557,0,0,0,.266.791l8.942,3.772a.557.557,0,0,0,.435,0l8.822-3.772a.556.556,0,0,0,.264-.79A.547.547,0,0,1,332.325,219.191Z" transform="translate(-301.843 -213.584)"/>
      <path id="Path_179" data-name="Path 179" class="cls-7" d="M343.757,226.891a.139.139,0,0,0,.139-.139v-4.658l4.591-1.673a.139.139,0,1,0,0-.278l-4.591,1.673a.273.273,0,0,0-.2.08.276.276,0,0,0-.083.2v4.658A.139.139,0,0,0,343.757,226.891Z" transform="translate(-327.523 -214.604)"/>
    </g>
  </g>
</svg>
