<svg xmlns="http://www.w3.org/2000/svg" xmlns:xlink="http://www.w3.org/1999/xlink" width="1366" height="601" viewBox="0 0 1366 601">
  <defs>
    <style>
      .cls-1 {
        fill: #fff;
        stroke: #707070;
      }

      .cls-2 {
        fill: none;
      }

      .cls-3 {
        clip-path: url(#clip-path);
      }

      .cls-4 {
        fill: #ebeff2;
        stroke: #ebeff2;
      }

      .cls-5 {
        fill: #146596;
      }

      .cls-6 {
        clip-path: url(#clip-path-2);
      }

      .cls-7 {
        fill: #043169;
      }

      .cls-8 {
        clip-path: url(#clip-path-3);
      }

      .cls-9 {
        fill: #187bb7;
      }
    </style>
    <clipPath id="clip-path">
      <rect id="Rectangle_85" data-name="Rectangle 85" class="cls-1" width="1366" height="571" transform="translate(0 94)"/>
    </clipPath>
    <clipPath id="clip-path-2">
      <rect class="cls-2" width="192" height="42"/>
    </clipPath>
    <clipPath id="clip-path-3">
      <rect id="Rectangle_86" data-name="Rectangle 86" class="cls-1" width="63" height="127" transform="translate(1303 568)"/>
    </clipPath>
  </defs>
  <g id="Group_57" data-name="Group 57" transform="translate(0 -94)">
    <g id="Group_56" data-name="Group 56">
      <g id="Group_55" data-name="Group 55">
        <g id="Group_54" data-name="Group 54">
          <g id="Mask_Group_1" data-name="Mask Group 1" class="cls-3">
            <g id="Group_1" data-name="Group 1">
              <path id="Path_1" data-name="Path 1" class="cls-4" d="M1366,94S196.125,101.264-10.2,203.951-52.174,398.416-52.174,398.416h1495.72Z"/>
              <path id="Path_2" data-name="Path 2" class="cls-4" d="M1492.56,360.848S222.659,354.481-1.3,264.466-46.87,94-46.87,94H1576.736Z" transform="translate(-115.861 304.416)"/>
            </g>
          </g>
          <g id="Group_53" data-name="Group 53">
            <circle id="Ellipse_3" data-name="Ellipse 3" class="cls-5" cx="5" cy="5" r="5" transform="translate(1252 127)"/>
            <circle id="Ellipse_3-2" data-name="Ellipse 3" class="cls-5" cx="5" cy="5" r="5" transform="translate(1282 127)"/>
            <circle id="Ellipse_3-3" data-name="Ellipse 3" class="cls-5" cx="5" cy="5" r="5" transform="translate(1312 127)"/>
            <circle id="Ellipse_3-4" data-name="Ellipse 3" class="cls-5" cx="5" cy="5" r="5" transform="translate(1342 127)"/>
            <circle id="Ellipse_3-5" data-name="Ellipse 3" class="cls-5" cx="5" cy="5" r="5" transform="translate(1252 148)"/>
            <circle id="Ellipse_3-6" data-name="Ellipse 3" class="cls-5" cx="5" cy="5" r="5" transform="translate(1282 148)"/>
            <circle id="Ellipse_3-7" data-name="Ellipse 3" class="cls-5" cx="5" cy="5" r="5" transform="translate(1312 148)"/>
            <circle id="Ellipse_3-8" data-name="Ellipse 3" class="cls-5" cx="5" cy="5" r="5" transform="translate(1342 148)"/>
          </g>
        </g>
        <g id="Group_2" data-name="Group 2">
          <g id="Repeat_Grid_1" data-name="Repeat Grid 1" class="cls-6" transform="translate(57 427)">
            <g transform="translate(-57 -427)">
              <circle id="Ellipse_1" data-name="Ellipse 1" class="cls-7" cx="5" cy="5" r="5" transform="translate(57 427)"/>
              <circle id="Ellipse_2" data-name="Ellipse 2" class="cls-7" cx="5" cy="5" r="5" transform="translate(87 427)"/>
            </g>
            <g transform="translate(3 -427)">
              <circle id="Ellipse_1-2" data-name="Ellipse 1" class="cls-7" cx="5" cy="5" r="5" transform="translate(57 427)"/>
              <circle id="Ellipse_2-2" data-name="Ellipse 2" class="cls-7" cx="5" cy="5" r="5" transform="translate(87 427)"/>
            </g>
            <g transform="translate(63 -427)">
              <circle id="Ellipse_1-3" data-name="Ellipse 1" class="cls-7" cx="5" cy="5" r="5" transform="translate(57 427)"/>
              <circle id="Ellipse_2-3" data-name="Ellipse 2" class="cls-7" cx="5" cy="5" r="5" transform="translate(87 427)"/>
            </g>
            <g transform="translate(123 -427)">
              <circle id="Ellipse_1-4" data-name="Ellipse 1" class="cls-7" cx="5" cy="5" r="5" transform="translate(57 427)"/>
              <circle id="Ellipse_2-4" data-name="Ellipse 2" class="cls-7" cx="5" cy="5" r="5" transform="translate(87 427)"/>
            </g>
            <g transform="translate(-57 -405)">
              <circle id="Ellipse_1-5" data-name="Ellipse 1" class="cls-7" cx="5" cy="5" r="5" transform="translate(57 427)"/>
              <circle id="Ellipse_2-5" data-name="Ellipse 2" class="cls-7" cx="5" cy="5" r="5" transform="translate(87 427)"/>
            </g>
            <g transform="translate(3 -405)">
              <circle id="Ellipse_1-6" data-name="Ellipse 1" class="cls-7" cx="5" cy="5" r="5" transform="translate(57 427)"/>
              <circle id="Ellipse_2-6" data-name="Ellipse 2" class="cls-7" cx="5" cy="5" r="5" transform="translate(87 427)"/>
            </g>
            <g transform="translate(63 -405)">
              <circle id="Ellipse_1-7" data-name="Ellipse 1" class="cls-7" cx="5" cy="5" r="5" transform="translate(57 427)"/>
              <circle id="Ellipse_2-7" data-name="Ellipse 2" class="cls-7" cx="5" cy="5" r="5" transform="translate(87 427)"/>
            </g>
            <g transform="translate(123 -405)">
              <circle id="Ellipse_1-8" data-name="Ellipse 1" class="cls-7" cx="5" cy="5" r="5" transform="translate(57 427)"/>
              <circle id="Ellipse_2-8" data-name="Ellipse 2" class="cls-7" cx="5" cy="5" r="5" transform="translate(87 427)"/>
            </g>
          </g>
        </g>
      </g>
    </g>
    <g id="Mask_Group_2" data-name="Mask Group 2" class="cls-8">
      <circle id="Ellipse_42" data-name="Ellipse 42" class="cls-9" cx="63.5" cy="63.5" r="63.5" transform="translate(1303 568)"/>
    </g>
  </g>
</svg>
