<svg xmlns="http://www.w3.org/2000/svg" width="10.336" height="11.813" viewBox="0 0 10.336 11.813">
  <path id="Icon_awesome-calendar-alt" data-name="Icon awesome-calendar-alt" d="M0,10.705a1.108,1.108,0,0,0,1.107,1.107H9.229a1.108,1.108,0,0,0,1.107-1.107V4.43H0ZM7.383,6.183a.278.278,0,0,1,.277-.277h.923a.278.278,0,0,1,.277.277v.923a.278.278,0,0,1-.277.277H7.66a.278.278,0,0,1-.277-.277Zm0,2.953A.278.278,0,0,1,7.66,8.86h.923a.278.278,0,0,1,.277.277v.923a.278.278,0,0,1-.277.277H7.66a.278.278,0,0,1-.277-.277ZM4.43,6.183a.278.278,0,0,1,.277-.277H5.63a.278.278,0,0,1,.277.277v.923a.278.278,0,0,1-.277.277H4.707a.278.278,0,0,1-.277-.277Zm0,2.953a.278.278,0,0,1,.277-.277H5.63a.278.278,0,0,1,.277.277v.923a.278.278,0,0,1-.277.277H4.707a.278.278,0,0,1-.277-.277ZM1.477,6.183a.278.278,0,0,1,.277-.277h.923a.278.278,0,0,1,.277.277v.923a.278.278,0,0,1-.277.277H1.753a.278.278,0,0,1-.277-.277Zm0,2.953a.278.278,0,0,1,.277-.277h.923a.278.278,0,0,1,.277.277v.923a.278.278,0,0,1-.277.277H1.753a.278.278,0,0,1-.277-.277Zm7.752-7.66H8.121V.369A.37.37,0,0,0,7.752,0H7.014a.37.37,0,0,0-.369.369V1.477H3.692V.369A.37.37,0,0,0,3.322,0H2.584a.37.37,0,0,0-.369.369V1.477H1.107A1.108,1.108,0,0,0,0,2.584V3.692H10.336V2.584A1.108,1.108,0,0,0,9.229,1.477Z" fill="#082f66"/>
</svg>
