<svg xmlns="http://www.w3.org/2000/svg" width="80" height="66.456" viewBox="0 0 80 66.456">
  <defs>
    <style>
      .cls-1 {
        fill: #8c4f53;
      }

      .cls-2 {
        fill: #032350;
      }

      .cls-3 {
        fill: #1c6495;
      }

      .cls-4 {
        fill: #2680eb;
      }

      .cls-5 {
        fill: #6199d6;
      }

      .cls-11, .cls-6 {
        fill: #fff;
      }

      .cls-7 {
        fill: #7383bf;
      }

      .cls-8 {
        fill: #d3e3f9;
      }

      .cls-9 {
        fill: #082654;
      }

      .cls-10 {
        fill: #7fe5b2;
        stroke-width: 2px;
      }

      .cls-10, .cls-11 {
        stroke: #082654;
      }

      .cls-12 {
        stroke: none;
      }

      .cls-13 {
        fill: none;
      }
    </style>
  </defs>
  <g id="Group_58" data-name="Group 58" transform="translate(-693 -553)">
    <g id="university" transform="translate(703.331 553)">
      <g id="Group_29" data-name="Group 29" transform="translate(4.339)">
        <path id="Path_256" data-name="Path 256" class="cls-1" d="M65.163,12.39H60.657L57.278,4.505H40.258L37,0,33.75,4.505H16.729L13.35,12.39H8.844L4.339,25.906H6.592V61.95H67.416V25.906h2.253Z" transform="translate(-4.339)"/>
        <rect id="Rectangle_58" data-name="Rectangle 58" class="cls-2" width="65.329" height="4.505" transform="translate(0 61.95)"/>
      </g>
      <path id="Path_257" data-name="Path 257" class="cls-3" d="M172.472,61.95H143.186V20.275L157.829,0l14.643,20.275Z" transform="translate(-120.825)"/>
      <g id="Group_30" data-name="Group 30" transform="translate(4.339 12.39)">
        <path id="Path_258" data-name="Path 258" class="cls-4" d="M330.633,103.342v5.632h18.022l-4.505-13.516H324.938Z" transform="translate(-283.325 -95.458)"/>
        <path id="Path_259" data-name="Path 259" class="cls-4" d="M22.361,103.342l5.695-7.884H8.844L4.339,108.974H22.361Z" transform="translate(-4.339 -95.458)"/>
      </g>
      <g id="Group_31" data-name="Group 31" transform="translate(6.592 25.906)">
        <rect id="Rectangle_59" data-name="Rectangle 59" class="cls-5" width="15.769" height="36.044"/>
        <rect id="Rectangle_60" data-name="Rectangle 60" class="cls-5" width="15.769" height="36.044" transform="translate(45.055)"/>
      </g>
      <circle id="Ellipse_36" data-name="Ellipse 36" class="cls-6" cx="6.758" cy="6.758" r="6.758" transform="translate(30.245 14.643)"/>
      <g id="Group_32" data-name="Group 32" transform="translate(35.877 18.022)">
        <path id="Path_260" data-name="Path 260" class="cls-7" d="M248.448,143.353a1.127,1.127,0,0,1-1.126-1.126v-2.253a1.126,1.126,0,1,1,2.253,0v2.253A1.127,1.127,0,0,1,248.448,143.353Z" transform="translate(-247.322 -138.847)"/>
        <path id="Path_261" data-name="Path 261" class="cls-7" d="M250.7,158.456h-2.253a1.126,1.126,0,1,1,0-2.253H250.7a1.126,1.126,0,0,1,0,2.253Z" transform="translate(-247.322 -153.95)"/>
      </g>
      <g id="Group_33" data-name="Group 33" transform="translate(11.097 32.665)">
        <rect id="Rectangle_61" data-name="Rectangle 61" class="cls-8" width="6.758" height="10.137" transform="translate(15.769)"/>
        <rect id="Rectangle_62" data-name="Rectangle 62" class="cls-8" width="6.758" height="10.137" transform="translate(15.769 14.643)"/>
        <rect id="Rectangle_63" data-name="Rectangle 63" class="cls-8" width="6.758" height="10.137"/>
        <rect id="Rectangle_64" data-name="Rectangle 64" class="cls-8" width="6.758" height="10.137" transform="translate(0 14.643)"/>
        <rect id="Rectangle_65" data-name="Rectangle 65" class="cls-8" width="6.758" height="10.137" transform="translate(45.055)"/>
        <rect id="Rectangle_66" data-name="Rectangle 66" class="cls-8" width="6.758" height="10.137" transform="translate(45.055 14.643)"/>
        <rect id="Rectangle_67" data-name="Rectangle 67" class="cls-8" width="6.758" height="10.137" transform="translate(29.286)"/>
        <rect id="Rectangle_68" data-name="Rectangle 68" class="cls-8" width="6.758" height="10.137" transform="translate(29.286 14.643)"/>
      </g>
      <g id="Group_34" data-name="Group 34" transform="translate(13.35 4.505)">
        <path id="Path_262" data-name="Path 262" class="cls-9" d="M73.763,42.6h14.7l5.695-7.885H77.142Z" transform="translate(-73.763 -34.712)"/>
        <path id="Path_263" data-name="Path 263" class="cls-9" d="M301.471,42.6h-14.7l-5.695-7.885h17.02Z" transform="translate(-254.163 -34.712)"/>
      </g>
    </g>
    <g id="Group_37" data-name="Group 37">
      <g id="Rectangle_69" data-name="Rectangle 69" class="cls-10" transform="translate(693 563)">
        <rect class="cls-12" width="35" height="33" rx="10"/>
        <rect class="cls-13" x="1" y="1" width="33" height="31" rx="9"/>
      </g>
      <g id="Group_36" data-name="Group 36" transform="translate(1 1)">
        <g id="Ellipse_37" data-name="Ellipse 37" class="cls-11" transform="translate(701 570)">
          <circle class="cls-12" cx="9" cy="9" r="9"/>
          <circle class="cls-13" cx="9" cy="9" r="8.5"/>
        </g>
        <path id="Icon_awesome-check" data-name="Icon awesome-check" class="cls-9" d="M4.066,13.33.175,9.439a.6.6,0,0,1,0-.847l.847-.847a.6.6,0,0,1,.847,0L4.49,10.367,10.1,4.753a.6.6,0,0,1,.847,0L11.8,5.6a.6.6,0,0,1,0,.847L4.913,13.33A.6.6,0,0,1,4.066,13.33Z" transform="translate(704 570.423)"/>
      </g>
    </g>
  </g>
</svg>
