<svg xmlns="http://www.w3.org/2000/svg" xmlns:xlink="http://www.w3.org/1999/xlink" width="123.007" height="97.791" viewBox="0 0 123.007 97.791">
  <defs>
    <linearGradient id="linear-gradient" x1="0.5" y1="1" x2="0.5" gradientUnits="objectBoundingBox">
      <stop offset="0" stop-color="gray" stop-opacity="0.251"/>
      <stop offset="0.54" stop-color="gray" stop-opacity="0.122"/>
      <stop offset="1" stop-color="gray" stop-opacity="0.102"/>
    </linearGradient>
  </defs>
  <g id="undraw_book_lover_mkck_1_" data-name="undraw_book_lover_mkck (1)" transform="translate(0 -0.007)">
    <path id="Path_3" data-name="Path 3" d="M172.425,82.835c-7.783-.271-15.2-2.783-22.276-5.532s-14.09-5.8-21.686-7.252c-4.886-.937-10.475-1.069-14.411,1.55-3.789,2.525-5.014,6.873-5.671,10.911-.5,3.038-.786,6.234.571,9.078.942,1.975,2.614,3.634,3.77,5.532,4.025,6.581,1.181,14.7-3.181,21.121-2.044,3.015-4.42,5.893-6,9.1s-2.309,6.885-.928,10.158c1.37,3.247,4.632,5.681,8.166,7.395,7.178,3.482,15.634,4.477,23.885,5.041,18.259,1.25,36.614.708,54.921.167a161.254,161.254,0,0,0,20.245-1.452c3.7-.582,7.522-1.5,10.21-3.734a8.552,8.552,0,0,0,1.971-11.17c-3.835-5.952-14.431-7.43-17.115-13.818-1.474-3.515.041-7.431,2.184-10.692,4.6-6.994,12.306-13.131,12.713-21.126.279-5.492-3.427-10.991-9.157-13.589-6-2.734-14.334-2.387-18.762,2.121C187.313,81.291,179.3,83.073,172.425,82.835Z" transform="translate(-100.286 -66.302)" fill="#9aadcb"/>
    <path id="Path_4" data-name="Path 4" d="M104.413,433.246l-41.163-.2-4.09-9.593,14.462-1.05L71.1,411.885l28.605-3.708-27.392-9.522,2.42-.575,44.045,7.186-2.426,16.414-3.467,9.021Z" transform="translate(-52.045 -350.2)" fill="#abc0e2"/>
    <path id="Path_5" data-name="Path 5" d="M187,698.553a4.722,4.722,0,0,1,4.041,1.381s-1.111.875-3.5-.337Z" transform="translate(-175.164 -619.726)" fill="#abc0e2"/>
    <path id="Path_6" data-name="Path 6" d="M177.21,698.51a4.71,4.71,0,0,0-.818,4.191s1.313-.526,1.456-3.2Z" transform="translate(-165.639 -619.722)" fill="#abc0e2"/>
    <path id="Path_7" data-name="Path 7" d="M172.76,666.708s1.01-1.853,5.051.741a2.268,2.268,0,0,1-2.323,1.145A2.739,2.739,0,0,1,172.76,666.708Z" transform="translate(-162.637 -591.181)" fill="#abc0e2"/>
    <path id="Path_8" data-name="Path 8" d="M153.769,670.275s-2.1-.241-2.3,4.558a2.269,2.269,0,0,0,2.273-1.242A2.734,2.734,0,0,0,153.769,670.275Z" transform="translate(-143.907 -594.881)" fill="#abc0e2"/>
    <path id="Path_9" data-name="Path 9" d="M160.44,625.459s1.179-3.266,5.455-.943c0,0-.977,3-5.017,2.054Z" transform="translate(-151.798 -553.893)" fill="#abc0e2"/>
    <path id="Path_10" data-name="Path 10" d="M149.52,586.59s2.222-3.3,6.162-.241c0,0-1.381,3.1-5.825,1.414Z" transform="translate(-142.191 -519.906)" fill="#abc0e2"/>
    <path id="Path_11" data-name="Path 11" d="M145.6,549.363s2.593-3.032,6.494,0a5.549,5.549,0,0,1-6.494.774Z" transform="translate(-138.743 -487.326)" fill="#abc0e2"/>
    <path id="Path_12" data-name="Path 12" d="M142.24,511.024s2.626-3.165,6.364-.168c0,0-2.963,2.795-6.364.909Z" transform="translate(-135.787 -453.501)" fill="#abc0e2"/>
    <path id="Path_13" data-name="Path 13" d="M144.2,471.742s2.766-4.074,6.263-1.313c0,0-2.963,3.5-6.263,2.088Z" transform="translate(-137.511 -418.226)" fill="#abc0e2"/>
    <path id="Path_14" data-name="Path 14" d="M149.52,434s2.93-4.041,6.33-.943c0,0-3.468,3.5-6.33,1.684Z" transform="translate(-142.191 -385.167)" fill="#abc0e2"/>
    <path id="Path_15" data-name="Path 15" d="M156.532,395.34s3.468-3.8,6.494-2.285c0,0-3.614,4.034-6.646,3.293Z" transform="translate(-148.226 -350.688)" fill="#abc0e2"/>
    <path id="Path_16" data-name="Path 16" d="M165.644,356.694s4-4.652,6.33-3.1c0,0-2.949,3.608-6.614,3.969Z" transform="translate(-156.126 -316.009)" fill="#abc0e2"/>
    <path id="Path_17" data-name="Path 17" d="M178.83,321.445s3.5-3.8,6.062-2.855c0,0-3,3.94-6.532,4.041Z" transform="translate(-167.563 -285.359)" fill="#abc0e2"/>
    <path id="Path_18" data-name="Path 18" d="M194.208,285.175s3.872-3.637,5.556-3c0,0-2.795,4.041-5.724,3.805Z" transform="translate(-181.357 -253.392)" fill="#abc0e2"/>
    <path id="Path_19" data-name="Path 19" d="M208.32,245.152s3.334-4.345,5.153-4.008c0,0-2.022,3.874-5.153,4.45Z" transform="translate(-193.92 -217.343)" fill="#abc0e2"/>
    <path id="Path_20" data-name="Path 20" d="M221.411,205.753s2.946-3.33,4.539-3.323c0,0-2.326,4.45-4.66,4.409Z" transform="translate(-205.33 -183.301)" fill="#abc0e2"/>
    <path id="Path_21" data-name="Path 21" d="M227.932,149.657l2.847-6.937s.142,6.27-3.209,8.223Z" transform="translate(-210.855 -130.772)" fill="#abc0e2"/>
    <path id="Path_22" data-name="Path 22" d="M240.049,90.964s.471-5.793.168-6.264c0,0,2.035,4.816-.188,8.823Z" transform="translate(-221.817 -79.729)" fill="#abc0e2"/>
    <path id="Path_23" data-name="Path 23" d="M123.952,635.113s-2.951-1.829-4.862,2.646c0,0,2.626,1.744,5.21-1.5Z" transform="translate(-115.421 -563.624)" fill="#abc0e2"/>
    <path id="Path_24" data-name="Path 24" d="M109.406,594.239s-3.62-1.651-5.376,3.021c0,0,2.8,1.924,5.705-1.84Z" transform="translate(-102.172 -527.741)" fill="#abc0e2"/>
    <path id="Path_25" data-name="Path 25" d="M96.694,551.673s-2.593-3.032-6.494,0a5.549,5.549,0,0,0,6.494.775Z" transform="translate(-90.005 -489.359)" fill="#abc0e2"/>
    <path id="Path_26" data-name="Path 26" d="M94.944,511.024s-2.626-3.165-6.364-.168c0,0,2.963,2.795,6.364.909Z" transform="translate(-88.58 -453.501)" fill="#abc0e2"/>
    <path id="Path_27" data-name="Path 27" d="M101.427,466.715s-1.842-4.564-5.847-2.6c0,0,2.165,4.047,5.683,3.359Z" transform="translate(-94.738 -413.083)" fill="#abc0e2"/>
    <path id="Path_28" data-name="Path 28" d="M108.343,426.874s-1.832-4.643-5.893-2.491c0,0,2.487,4.256,5.712,3.207Z" transform="translate(-100.782 -378.061)" fill="#abc0e2"/>
    <path id="Path_29" data-name="Path 29" d="M130.979,374.276s-.722-5.091-4.089-5.546c0,0,.714,5.368,3.635,6.464Z" transform="translate(-122.283 -329.602)" fill="#abc0e2"/>
    <path id="Path_30" data-name="Path 30" d="M146.005,335.327s-.281-6.133-3.065-6.347c0,0,.094,4.655,2.752,7.216Z" transform="translate(-136.403 -294.632)" fill="#abc0e2"/>
    <path id="Path_31" data-name="Path 31" d="M159.158,300.133s-.83-5.1-3.488-5.723c0,0,.329,4.939,3.224,6.975Z" transform="translate(-147.602 -264.219)" fill="#abc0e2"/>
    <path id="Path_32" data-name="Path 32" d="M184.29,263.424s-.028-5.313-1.651-6.094c0,0-1.007,4.81,1.181,6.772Z" transform="translate(-171.124 -231.599)" fill="#abc0e2"/>
    <path id="Path_33" data-name="Path 33" d="M194.9,228.451s-.227-5.471-1.909-6.241c0,0-.575,4.329,1.657,6.6Z" transform="translate(-180.379 -200.702)" fill="#abc0e2"/>
    <path id="Path_34" data-name="Path 34" d="M212.532,193.5s-.01-4.45-1.21-5.493c0,0-1.193,4.874.583,6.388Z" transform="translate(-196.216 -170.615)" fill="#abc0e2"/>
    <path id="Path_35" data-name="Path 35" d="M217.6,144.406,216.436,137s-1.586,6.068,1.223,8.743Z" transform="translate(-200.668 -125.739)" fill="#abc0e2"/>
    <path id="Path_36" data-name="Path 36" d="M209.819,96.9s-3-4.979-2.936-5.532c0,0,.319,5.218,4.089,7.817Z" transform="translate(-192.655 -85.597)" fill="#abc0e2"/>
    <path id="Path_37" data-name="Path 37" d="M204.168,69.224s-2.829-7.071-4.108-7.644a8.963,8.963,0,0,1,4.344,7.442Z" transform="translate(-186.653 -59.389)" fill="#abc0e2"/>
    <path id="Path_38" data-name="Path 38" d="M219.754,135.578l-.194-.059c2.387-7.784,2.982-12.748,1.678-13.992l.138-.147C222.76,122.693,222.2,127.6,219.754,135.578Z" transform="translate(-203.808 -111.998)" fill="#444053"/>
    <path id="Path_39" data-name="Path 39" d="M164.416,253.505l-.286-.1c.254-.713.527-1.437.813-2.15,2.492-6.21,4.613-11.987,5.973-16.423l.249-.12c-1.363,4.444-3.447,10.442-5.941,16.661C164.939,252.071,164.668,252.791,164.416,253.505Z" transform="translate(-155.044 -211.699)" fill="#444053"/>
    <path id="Path_40" data-name="Path 40" d="M149.075,428.9a39.336,39.336,0,0,1-6.6-11.837,43.8,43.8,0,0,1-2.606-13.563,51.184,51.184,0,0,1,3.11-18.122l.226.265a46.445,46.445,0,0,0-.354,31.268,38.971,38.971,0,0,0,6.531,11.723Z" transform="translate(-133.681 -344.249)" fill="#444053"/>
    <path id="Path_41" data-name="Path 41" d="M533.65,670.36s-2.726,3.328-.562,8.358l-21.767,9.44-2.089.438-.962-4.209.643-5.312v-2.9Z" transform="translate(-457.798 -594.958)" fill="#d5d6db"/>
    <path id="Path_42" data-name="Path 42" d="M59.16,568.882l30.127-5.492,39.92,6.359-24.8,8.927Z" transform="translate(-52.045 -495.63)" fill="#abc0e2"/>
    <path id="Path_43" data-name="Path 43" d="M59.16,568.882l30.127-5.492,39.92,6.359-24.8,8.927Z" transform="translate(-52.045 -495.63)" fill="#abc0e2"/>
    <path id="Path_44" data-name="Path 44" d="M139.443,652.47s-2.818,5.338.429,10.269l44.677,9.681s-2.773-4.252.143-10.155Z" transform="translate(-132.329 -579.219)" fill="#abc0e2"/>
    <path id="Path_45" data-name="Path 45" d="M139.443,652.47s-2.818,5.338.429,10.269l44.677,9.681s-2.773-4.252.143-10.155Z" transform="translate(-132.329 -579.219)" opacity="0.1"/>
    <path id="Path_46" data-name="Path 46" d="M153.575,667.86s-1.61,3.906,0,6.434" transform="translate(-145.129 -592.758)" opacity="0.1"/>
    <path id="Path_47" data-name="Path 47" d="M195.986,740.5l24.942-10.643s1.4.3.493,1.323-24.954,10.342-24.954,10.342l-45.158-10.7Z" transform="translate(-143.766 -647.302)" fill="#abc0e2"/>
    <path id="Path_48" data-name="Path 48" d="M195.986,740.5l24.942-10.643s1.4.3.493,1.323-24.954,10.342-24.954,10.342l-45.158-10.7Z" transform="translate(-143.766 -647.302)" opacity="0.1"/>
    <path id="Path_49" data-name="Path 49" d="M497.99,742.86s-2.405,2.886,0,7.216" transform="translate(-447.814 -658.739)" opacity="0.1"/>
    <rect id="Rectangle_23" data-name="Rectangle 23" width="11.373" height="0.12" transform="translate(51.032 87.671) rotate(-18.45)" opacity="0.1"/>
    <rect id="Rectangle_24" data-name="Rectangle 24" width="13.858" height="0.12" transform="translate(51.028 88.64) rotate(-20.82)" opacity="0.1"/>
    <rect id="Rectangle_25" data-name="Rectangle 25" width="16.062" height="0.12" transform="translate(51.101 89.781) rotate(-22.26)" opacity="0.1"/>
    <rect id="Rectangle_26" data-name="Rectangle 26" width="18.489" height="0.12" transform="translate(51.274 90.787) rotate(-24.31)" opacity="0.1"/>
    <rect id="Rectangle_27" data-name="Rectangle 27" width="20.222" height="0.12" transform="matrix(0.916, -0.401, 0.401, 0.916, 51.408, 91.277)" opacity="0.1"/>
    <rect id="Rectangle_28" data-name="Rectangle 28" width="24.199" height="0.12" transform="translate(51.687 92.1) rotate(-23.36)" opacity="0.1"/>
    <path id="Path_50" data-name="Path 50" d="M152.23,581.39l21.166-4.45,12.894,2.465L168.946,585Z" transform="translate(-133.923 -507.551)" fill="#fff" opacity="0.3"/>
    <path id="Path_51" data-name="Path 51" d="M548.8,659.69s1.094.441.452,1.123-25.251,7.8-25.251,7.8Z" transform="translate(-471.636 -585.571)" fill="#abc0e2"/>
    <path id="Path_52" data-name="Path 52" d="M632.948,574.18s-2.725,3.326-.56,8.358l-21.767,9.44-2.089.44-.962-4.209.653-5.311v-2.907Z" transform="translate(-545.156 -510.344)" fill="#d5d6db"/>
    <path id="Path_53" data-name="Path 53" d="M158.46,472.7l30.126-5.491,39.921,6.359-24.8,8.927Z" transform="translate(-139.404 -411.017)" fill="#3a3768"/>
    <path id="Path_54" data-name="Path 54" d="M238.7,556.29s-2.819,5.338.428,10.269L283.8,576.24s-2.772-4.256.148-10.156Z" transform="translate(-219.645 -494.606)" fill="#3a3768"/>
    <path id="Path_55" data-name="Path 55" d="M238.7,556.29s-2.819,5.338.428,10.269L283.8,576.24s-2.772-4.256.148-10.156l-14.128-3.058Z" transform="translate(-219.645 -494.606)" opacity="0.1"/>
    <path id="Path_56" data-name="Path 56" d="M252.868,571.68s-1.609,3.9,0,6.434" transform="translate(-232.482 -508.145)" opacity="0.1"/>
    <path id="Path_57" data-name="Path 57" d="M295.277,644.323,320.22,633.68s1.394.3.492,1.323-24.954,10.342-24.954,10.342l-45.158-10.7Z" transform="translate(-231.116 -562.689)" fill="#3a3768"/>
    <path id="Path_58" data-name="Path 58" d="M295.277,644.323,320.22,633.68s1.394.3.492,1.323-24.954,10.342-24.954,10.342l-45.158-10.7Z" transform="translate(-231.116 -562.689)" opacity="0.1"/>
    <path id="Path_59" data-name="Path 59" d="M597.28,646.68s-2.405,2.886,0,7.216" transform="translate(-535.163 -574.125)" opacity="0.1"/>
    <rect id="Rectangle_29" data-name="Rectangle 29" width="11.373" height="0.12" transform="translate(62.974 76.106) rotate(-18.45)" opacity="0.1"/>
    <rect id="Rectangle_30" data-name="Rectangle 30" width="13.858" height="0.12" transform="translate(62.971 77.074) rotate(-20.82)" opacity="0.1"/>
    <rect id="Rectangle_31" data-name="Rectangle 31" width="16.062" height="0.12" transform="translate(63.042 78.213) rotate(-22.26)" opacity="0.1"/>
    <rect id="Rectangle_32" data-name="Rectangle 32" width="18.489" height="0.12" transform="translate(63.217 79.22) rotate(-24.31)" opacity="0.1"/>
    <rect id="Rectangle_33" data-name="Rectangle 33" width="20.222" height="0.12" transform="matrix(0.916, -0.401, 0.401, 0.916, 63.349, 79.708)" opacity="0.1"/>
    <rect id="Rectangle_34" data-name="Rectangle 34" width="24.199" height="0.12" transform="translate(63.629 80.531) rotate(-23.36)" opacity="0.1"/>
    <path id="Path_60" data-name="Path 60" d="M251.53,485.21l21.166-4.45,12.894,2.465-17.344,5.592Z" transform="translate(-221.281 -422.937)" fill="#fff" opacity="0.45"/>
    <path id="Path_61" data-name="Path 61" d="M648.125,563.51s1.093.441.452,1.122-25.247,7.8-25.247,7.8Z" transform="translate(-559.021 -500.957)" fill="#3a3768"/>
    <path id="Path_62" data-name="Path 62" d="M642.375,464.15s-2.726,5.973-.562,11l-21.767,6.795-2.084.441L617,478.181l.643-5.312v-2.907Z" transform="translate(-553.452 -413.546)" fill="#d5d6db"/>
    <path id="Path_63" data-name="Path 63" d="M167.89,362.672l30.128-5.492,39.921,6.359-24.8,8.927Z" transform="translate(-147.7 -314.219)" fill="#abc0e2"/>
    <path id="Path_64" data-name="Path 64" d="M248.149,446.26s-2.822,5.338.425,10.269l44.677,9.681s-2.773-4.256.147-10.155Z" transform="translate(-227.958 -397.808)" fill="#abc0e2"/>
    <path id="Path_65" data-name="Path 65" d="M248.149,446.26s-2.822,5.338.425,10.269l44.677,9.681s-2.773-4.256.147-10.155Z" transform="translate(-227.958 -397.808)" opacity="0.1"/>
    <path id="Path_66" data-name="Path 66" d="M262.3,461.65s-1.61,3.906,0,6.434" transform="translate(-240.783 -411.347)" opacity="0.1"/>
    <path id="Path_67" data-name="Path 67" d="M304.716,541.331l24.942-8s1.4.3.493,1.323-24.954,7.7-24.954,7.7l-45.158-10.7Z" transform="translate(-239.42 -472.929)" fill="#abc0e2"/>
    <path id="Path_68" data-name="Path 68" d="M304.716,541.331l24.942-8s1.4.3.493,1.323-24.954,7.7-24.954,7.7l-45.158-10.7Z" transform="translate(-239.42 -472.929)" opacity="0.1"/>
    <path id="Path_69" data-name="Path 69" d="M606.72,536.65s-2.405,2.886,0,7.216" transform="translate(-543.468 -477.328)" opacity="0.1"/>
    <rect id="Rectangle_35" data-name="Rectangle 35" width="11.373" height="0.12" transform="translate(64.109 62.874) rotate(-18.45)" opacity="0.1"/>
    <rect id="Rectangle_36" data-name="Rectangle 36" width="13.858" height="0.12" transform="translate(64.106 63.842) rotate(-20.82)" opacity="0.1"/>
    <rect id="Rectangle_37" data-name="Rectangle 37" width="16.062" height="0.12" transform="translate(64.176 64.982) rotate(-22.26)" opacity="0.1"/>
    <rect id="Rectangle_38" data-name="Rectangle 38" width="18.489" height="0.12" transform="translate(64.352 65.988) rotate(-24.31)" opacity="0.1"/>
    <rect id="Rectangle_39" data-name="Rectangle 39" width="20.222" height="0.12" transform="matrix(0.916, -0.401, 0.401, 0.916, 64.485, 66.477)" opacity="0.1"/>
    <rect id="Rectangle_40" data-name="Rectangle 40" width="24.199" height="0.12" transform="translate(64.765 67.3) rotate(-23.36)" opacity="0.1"/>
    <path id="Path_70" data-name="Path 70" d="M260.96,375.18l21.166-4.45L295.02,373.2l-17.344,5.592Z" transform="translate(-229.577 -326.139)" fill="#fff" opacity="0.3"/>
    <path id="Path_71" data-name="Path 71" d="M657.555,453.48s1.094.441.452,1.123-25.247,7.8-25.247,7.8Z" transform="translate(-567.317 -404.16)" fill="#abc0e2"/>
    <path id="Path_72" data-name="Path 72" d="M369.158,149.877s-4.57-.275-4.036,2.931a.782.782,0,0,0,.406.824s.008-.241.469-.158a2.05,2.05,0,0,0,.5.024,1.037,1.037,0,0,0,.607-.25h0a3.631,3.631,0,0,0,1.786-2.634s.37-.458.361-.576l-.774.33a1.387,1.387,0,0,1,.056,1.02s-.025-1-.174-.977c-.03,0-.4.194-.4.194a2.282,2.282,0,0,1,.111,1.675s.13-1.2-.253-1.605l-.544.317a2.4,2.4,0,0,1,.171,1.82,3.409,3.409,0,0,0-.285-1.743l-.493.385a2.344,2.344,0,0,1,.195,1.666s-.04-1.46-.3-1.571a2.969,2.969,0,0,0-.5.536s.342.722.129,1.1c0,0-.129-.973-.24-.978a3.239,3.239,0,0,0-.474,1.082,2.34,2.34,0,0,1,.369-1.147,1.288,1.288,0,0,0-.657.34s.066-.456.764-.5a2.955,2.955,0,0,1,.45-.518,2.815,2.815,0,0,0-1.114.127,1.261,1.261,0,0,1,1.24-.241l.481-.4a4.15,4.15,0,0,0-1.3.013,1.582,1.582,0,0,1,1.43-.1l.53-.316a4.819,4.819,0,0,0-1.241-.107,1.905,1.905,0,0,1,1.4.022l.378-.17s-.569-.112-.736-.13-.176-.064-.176-.064a1.986,1.986,0,0,1,1.07.12A4.773,4.773,0,0,0,369.158,149.877Z" transform="translate(-331.827 -137.062)" fill="#abc0e2"/>
    <path id="Path_73" data-name="Path 73" d="M903.758,259.457s-4.57-.275-4.036,2.931a.782.782,0,0,0,.407.824s.008-.241.469-.158a2.119,2.119,0,0,0,.5.024,1.034,1.034,0,0,0,.6-.25h0a3.628,3.628,0,0,0,1.786-2.634s.37-.458.361-.576l-.772.33a1.387,1.387,0,0,1,.056,1.02s-.025-1-.173-.977c-.03,0-.4.194-.4.194a2.286,2.286,0,0,1,.112,1.675s.13-1.2-.254-1.606l-.544.318a2.4,2.4,0,0,1,.171,1.82,3.41,3.41,0,0,0-.285-1.743l-.492.385a2.346,2.346,0,0,1,.194,1.666s-.04-1.46-.3-1.571a3.017,3.017,0,0,0-.5.536s.342.722.13,1.1c0,0-.13-.973-.241-.978a3.236,3.236,0,0,0-.474,1.082,2.333,2.333,0,0,1,.37-1.147,1.294,1.294,0,0,0-.658.34s.067-.456.764-.5a3,3,0,0,1,.45-.52,2.827,2.827,0,0,0-1.114.129,1.262,1.262,0,0,1,1.24-.24l.481-.4a4.151,4.151,0,0,0-1.3.013,1.581,1.581,0,0,1,1.43-.1l.529-.316a4.82,4.82,0,0,0-1.241-.107,1.905,1.905,0,0,1,1.4.022l.379-.17s-.57-.112-.737-.13-.176-.064-.176-.064a1.97,1.97,0,0,1,1.07.12A4.855,4.855,0,0,0,903.758,259.457Z" transform="translate(-802.136 -233.464)" fill="#abc0e2" opacity="0.1"/>
    <path id="Path_74" data-name="Path 74" d="M426.07,295.18s-1.992-4.129-4.527-2.094a.781.781,0,0,0-.521.756s.211-.109.361.333a2.133,2.133,0,0,0,.221.445,1.037,1.037,0,0,0,.516.409h0a3.629,3.629,0,0,0,3.17.274,2.057,2.057,0,0,0,.676.03l-.664-.514a1.4,1.4,0,0,1-.863.546s.861-.509.768-.627c-.019-.024-.361-.256-.361-.256a2.284,2.284,0,0,1-1.408.914s1.106-.469,1.277-1l-.541-.32a2.4,2.4,0,0,1-1.506,1.037s1.14-.53,1.382-1.1l-.575-.24s-.619.916-1.36.983c0,0,1.255-.747,1.224-1.029a3.05,3.05,0,0,0-.711-.172s-.459.648-.892.648c0,0,.785-.588.737-.683a3.173,3.173,0,0,0-1.179.12,2.342,2.342,0,0,1,1.182-.241,1.3,1.3,0,0,0-.618-.408s.431-.164.8.424a2.968,2.968,0,0,1,.672.14,2.824,2.824,0,0,0-.654-.908s.556.112.809.962l.583.231a4.011,4.011,0,0,0-.645-1.127s.548.2.788,1.2l.534.308a4.758,4.758,0,0,0-.511-1.135,1.906,1.906,0,0,1,.661,1.229l.333.248s-.18-.552-.24-.706-.03-.185-.03-.185a1.974,1.974,0,0,1,.419.992A4.488,4.488,0,0,0,426.07,295.18Z" transform="translate(-381.043 -262.559)" fill="#abc0e2" opacity="0.1"/>
    <path id="Path_75" data-name="Path 75" d="M809.851,191.56s-1.99-4.129-4.527-2.094a.782.782,0,0,0-.521.756s.212-.108.361.333a2.085,2.085,0,0,0,.223.446,1.032,1.032,0,0,0,.515.408h0a3.632,3.632,0,0,0,3.17.275,2.067,2.067,0,0,0,.677.029l-.66-.515a1.4,1.4,0,0,1-.862.547s.86-.51.767-.628c-.019-.024-.361-.256-.361-.256a2.28,2.28,0,0,1-1.408.914s1.108-.469,1.278-1l-.55-.317a2.4,2.4,0,0,1-1.506,1.037s1.14-.532,1.383-1.1l-.576-.241s-.619.918-1.359.982c0,0,1.254-.747,1.223-1.028a2.974,2.974,0,0,0-.71-.172s-.459.647-.894.647c0,0,.786-.588.738-.683a3.181,3.181,0,0,0-1.18.12,2.341,2.341,0,0,1,1.182-.241,1.289,1.289,0,0,0-.617-.408s.431-.164.8.425a2.978,2.978,0,0,1,.672.141,2.815,2.815,0,0,0-.655-.909s.556.113.809.968l.584.231a4.01,4.01,0,0,0-.645-1.128s.549.2.786,1.2l.535.308a4.8,4.8,0,0,0-.512-1.135,1.9,1.9,0,0,1,.661,1.229l.333.248s-.179-.552-.24-.706-.03-.184-.03-.184a1.978,1.978,0,0,1,.417.992A4.619,4.619,0,0,0,809.851,191.56Z" transform="translate(-718.67 -171.4)" fill="#abc0e2" opacity="0.1"/>
    <path id="Path_76" data-name="Path 76" d="M862.715,361.362s-1.99-4.13-4.53-2.095a.782.782,0,0,0-.521.756s.212-.108.361.333a2.078,2.078,0,0,0,.221.446,1.031,1.031,0,0,0,.515.408h0a3.63,3.63,0,0,0,3.172.275s.58.1.676.029l-.664-.514a1.4,1.4,0,0,1-.863.547s.86-.51.767-.628c-.019-.024-.361-.256-.361-.256a2.285,2.285,0,0,1-1.408.915s1.108-.47,1.278-1l-.542-.32a2.4,2.4,0,0,1-1.506,1.037s1.14-.532,1.383-1.1l-.576-.24s-.619.916-1.359.983c0,0,1.255-.747,1.224-1.029a2.99,2.99,0,0,0-.711-.172s-.459.647-.893.647c0,0,.786-.588.738-.683a3.18,3.18,0,0,0-1.18.12,2.348,2.348,0,0,1,1.183-.241,1.286,1.286,0,0,0-.618-.408s.43-.165.8.425a2.966,2.966,0,0,1,.672.139,2.837,2.837,0,0,0-.654-.909s.556.113.809.968l.583.231a3.994,3.994,0,0,0-.645-1.127s.548.2.786,1.2l.535.307a4.8,4.8,0,0,0-.512-1.135,1.9,1.9,0,0,1,.663,1.23l.333.241s-.18-.552-.241-.706-.03-.184-.03-.184a1.968,1.968,0,0,1,.417.992A4.87,4.87,0,0,0,862.715,361.362Z" transform="translate(-765.173 -320.781)" fill="#abc0e2" opacity="0.1"/>
    <ellipse id="Ellipse_6" data-name="Ellipse 6" cx="2.765" cy="0.309" rx="2.765" ry="0.309" transform="translate(21.522 93.691)" fill="#abc0e2" opacity="0.1"/>
    <ellipse id="Ellipse_7" data-name="Ellipse 7" cx="2.765" cy="0.309" rx="2.765" ry="0.309" transform="translate(3.397 88.439)" fill="#abc0e2" opacity="0.1"/>
    <ellipse id="Ellipse_8" data-name="Ellipse 8" cx="2.765" cy="0.309" rx="2.765" ry="0.309" transform="translate(35.337 97.18)" fill="#abc0e2" opacity="0.1"/>
    <ellipse id="Ellipse_9" data-name="Ellipse 9" cx="2.765" cy="0.309" rx="2.765" ry="0.309" transform="translate(106.134 89.581)" fill="#abc0e2" opacity="0.1"/>
    <ellipse id="Ellipse_10" data-name="Ellipse 10" cx="2.765" cy="0.309" rx="2.765" ry="0.309" transform="translate(83.127 88.081)" fill="#abc0e2" opacity="0.1"/>
    <ellipse id="Ellipse_11" data-name="Ellipse 11" cx="3.27" cy="0.562" rx="3.27" ry="0.562" transform="translate(67.739 94.89)" fill="#abc0e2" opacity="0.1"/>
    <path id="Path_77" data-name="Path 77" d="M670.134,790.14s-4.553,2.352-2.2,5.123a.88.88,0,0,0,.861.559s-.127-.233.361-.42a2.344,2.344,0,0,0,.492-.261,1.156,1.156,0,0,0,.44-.588h0A4.061,4.061,0,0,0,670.3,791a2.287,2.287,0,0,0,.012-.758l-.553.759a1.55,1.55,0,0,1,.637.948s-.6-.946-.722-.842c-.026.022-.274.415-.274.415a2.548,2.548,0,0,1,1.064,1.545s-.558-1.223-1.161-1.4l-.345.616a2.674,2.674,0,0,1,1.2,1.65s-.629-1.257-1.271-1.51l-.254.65s1.044.664,1.14,1.489c0,0-.873-1.379-1.187-1.336a3.332,3.332,0,0,0-.171.8s.737.493.751.978c0,0-.681-.86-.785-.8a3.625,3.625,0,0,0,.166,1.315,2.6,2.6,0,0,1-.3-1.315,1.443,1.443,0,0,0-.436.7s-.2-.475.45-.913a3.321,3.321,0,0,1,.136-.755,3.171,3.171,0,0,0-1,.76s.109-.624,1.057-.934l.24-.659a4.481,4.481,0,0,0-1.24.755s.21-.619,1.314-.916l.327-.6a5.518,5.518,0,0,0-1.253.6,2.129,2.129,0,0,1,1.354-.778l.266-.379s-.611.218-.782.3-.2.04-.2.04a2.21,2.21,0,0,1,1.1-.5A5.356,5.356,0,0,0,670.134,790.14Z" transform="translate(-597.667 -700.333)" fill="#abc0e2"/>
    <path id="Path_78" data-name="Path 78" d="M505.157,88.8c-.786-2.137-5.116-2.338-6.994-1.793a56.172,56.172,0,0,1-5.652,1.046l-.1-.093c.195-.058.2-.2.176-.41a6.413,6.413,0,0,1,.012-.832,2.049,2.049,0,0,0,1.741-.391h0c1.082-.481.791-2.54,1-3.1a35.655,35.655,0,0,0,.4-4.137h.016l.008-.415c.011-.179.016-.284.016-.284a28.436,28.436,0,0,1,.313-3.635,31.825,31.825,0,0,0,.373-3.848v-.059l-.016-.262c.011-.191.016-.4.014-.628,0-1.028-.107-2.323-.12-2.533v-.109a3.7,3.7,0,0,0-1.917-3.468c-.689-.308-1.518-.675-2.32-1.032a39.3,39.3,0,0,1-.639-5.361c0-.271.024-.541.051-.811,0,.078-.008.158-.01.241v.524c.071-2.25.921-4.512.842-6.714-.007.215-.023.432-.043.648a6.99,6.99,0,0,0-.231-2.212,1.309,1.309,0,0,0-.378-.685,1.555,1.555,0,0,0-.659-.261,13.255,13.255,0,0,0-1.731-.322,2.673,2.673,0,0,0-.39-.756,8.555,8.555,0,0,0-5.162-3.608,3.431,3.431,0,0,0-3.033.736,2.281,2.281,0,0,0-.214.216c-.392.468-.56,1.082-.962,1.549-.026.031-.057.06-.085.09-.786.7-2.012.85-2.886,1.482a3.466,3.466,0,0,0-.432.376,7.32,7.32,0,0,0-.943,1.146,4.754,4.754,0,0,0-.922,1.789c-.251,1.323.649,2.577.817,3.908.373,2.979-2.924,5.622-2.3,8.561a3.92,3.92,0,0,0,1.061,1.9c-1.286,1.164-2.38,2.293-2.38,2.293v.067h-.2l.02.241h-.02l.112,1.3-.112,1.9v.179h.007a30.4,30.4,0,0,0,.361,3.728,28.4,28.4,0,0,1,.312,3.635s.228,4.273.438,4.838-.088,2.618,1,3.1h0a2.285,2.285,0,0,0,1.091.452c-.055.45-.02.776.159.878a.524.524,0,0,0,.253.072,2.689,2.689,0,0,0-.2.343,5.1,5.1,0,0,1-1.26-.3c-1.166-.481-5.038-1.563-6.162-.8s-3.83,1.452-2.581,4.516,1.832,3.141,1.832,3.141a4.451,4.451,0,0,1,1,1c.375.564,3.871,1.854,4.745,1.854a8.564,8.564,0,0,1,1.112.055s-.949.832-.823,1.316a39.926,39.926,0,0,1-.289,4.353s.962.969,1.373-.3l.014.019c.077.1.493.577,1.276-.019a7.158,7.158,0,0,1,1.017-.645l3.791-.536a10.732,10.732,0,0,1,1.187-.008,2.48,2.48,0,0,0,1.563-.582c.785.3,1.668.624,2.088.743.851.241,4.765,1.29,5.68.962a1.271,1.271,0,0,0,.493-.351l.873.028-.409.082s.8.013,1.879.028l-.046.026,1.358-.012c1.987.018,4.219.024,4.512-.042a31.7,31.7,0,0,1,3.55,0h.2a2.154,2.154,0,0,0,1.541-3.184c-.832-2.044-3.39-2.639-4.525-2.8.32-.064.6-.113.778-.142a6.162,6.162,0,0,0,2.457-1.088c.125-.247,1.416-.962,1.749-1.37A7.661,7.661,0,0,0,505.157,88.8Zm-21.725,5.98-.129.042-.087.029-.166.164c-.132-.089-.274-.183-.422-.279C482.889,94.751,483.158,94.767,483.432,94.78Zm11.462,3.389Z" transform="translate(-419.176 -43.42)" fill="url(#linear-gradient)"/>
    <path id="Path_79" data-name="Path 79" d="M686.65,256.5s1.84,4.81,2.886,4.329.762-2.525.962-3.086.421-4.81.421-4.81a29.086,29.086,0,0,1,.3-3.615,33.137,33.137,0,0,0,.361-3.823v-.059l-.2-3.488-1.123-.28-2.6.962-.361,2.06-.141.8-.06.343Z" transform="translate(-614.726 -217.822)" fill="#be6f72"/>
    <path id="Path_80" data-name="Path 80" d="M691.69,358.3a12.921,12.921,0,0,0,2.285,1.563c.529.126.854,1.247.854,1.247" transform="translate(-619.16 -320.426)" opacity="0.1"/>
    <path id="Path_81" data-name="Path 81" d="M530.931,258.252s-1.84,4.81-2.886,4.329-.762-2.525-.962-3.086-.421-4.81-.421-4.81a29.084,29.084,0,0,0-.3-3.615,33.136,33.136,0,0,1-.361-3.823v-.059l.2-3.488,1.123-.28,2.6.962.361,2.06.141.8.06.343Z" transform="translate(-473.396 -219.361)" fill="#be6f72"/>
    <rect id="Rectangle_41" data-name="Rectangle 41" width="4.107" height="6.401" transform="translate(65.409 13.147)" fill="#3e373a"/>
    <rect id="Rectangle_42" data-name="Rectangle 42" width="4.107" height="6.401" transform="translate(65.409 13.147)" opacity="0.1"/>
    <path id="Path_82" data-name="Path 82" d="M553.7,403.79s-1.4,1.543-.883,1.823,3.889,5.532,3.889,5.532,11.064,1.363,13.15-.682,2.044-5.7,2.044-5.7-1.676.361-1.859.165-1.187-1.141-1.187-1.141S554.657,402.929,553.7,403.79Z" transform="translate(-496.882 -360.109)" fill="#4b4b5b"/>
    <path id="Path_83" data-name="Path 83" d="M553.7,403.79s-1.4,1.543-.883,1.823,3.889,5.532,3.889,5.532,11.064,1.363,13.15-.682,2.044-5.7,2.044-5.7-1.676.361-1.859.165-1.187-1.141-1.187-1.141S554.657,402.929,553.7,403.79Z" transform="translate(-496.882 -360.109)" opacity="0.02"/>
    <path id="Path_84" data-name="Path 84" d="M551.587,163.45l-3.608,2.886-1.091.079-.4.029-6.726.493-6.975-.51-1.038-.076-1.323-.1-2.766-2.646a47.359,47.359,0,0,1,3.673-3.513,7.533,7.533,0,0,1,1.78-1.189l.079-.028a1.98,1.98,0,0,0,.762-.532c1.354-1.4,2.606-4.842,2.606-4.842s5.973-3.086,5.252.962,2.685,3.047,2.685,3.047l1.123.512.444.2,1.132.518,2.553,1.171C551.753,160.844,551.587,163.45,551.587,163.45Z" transform="translate(-474.856 -139.271)" fill="#be6f72"/>
    <circle id="Ellipse_12" data-name="Ellipse 12" cx="5.372" cy="5.372" r="5.372" transform="translate(59.253 6.788)" opacity="0.1"/>
    <path id="Path_85" data-name="Path 85" d="M550.135,214.764H526V214.7l.2-3.488a47.364,47.364,0,0,1,3.673-3.513l15.153-.6.7-.743,2.553,1.171c2,.921,1.844,3.527,1.844,3.527A16.84,16.84,0,0,1,550.135,214.764Z" transform="translate(-473.396 -186.758)" opacity="0.1"/>
    <path id="Path_86" data-name="Path 86" d="M550.135,213.764H526V213.7l.2-3.488a47.352,47.352,0,0,1,3.673-3.513l15.153-.6.7-.743,2.553,1.171c2,.921,1.844,3.527,1.844,3.527A16.84,16.84,0,0,1,550.135,213.764Z" transform="translate(-473.396 -185.878)" fill="#e7c7ca"/>
    <path id="Path_87" data-name="Path 87" d="M582.793,186.234s3.807,4.851,8.879-.1.562,11.043.562,11.043l-10.944,1.3Z" transform="translate(-522.037 -168.128)" opacity="0.1"/>
    <path id="Path_88" data-name="Path 88" d="M582.793,188.234s3.807,4.851,8.879-.1.562,11.043.562,11.043l-10.944,1.3Z" transform="translate(-522.037 -169.887)" fill="#e7c7ca"/>
    <path id="Path_89" data-name="Path 89" d="M567.065,201.548l.4,6.144.432,2.044.329,1.563s.842,12.026.6,12.627.12,1.082.171,1.4-.05,1.123-.011,1.484,0,.521-.921.392-2.206-.352-2.206-.352a17.139,17.139,0,0,1-4.369-.16,12.819,12.819,0,0,0-3.247-.4s-3.207.081-4.249-.04-1.6,1.283-2.285.881.8-4.289,1.282-5.412-.641-3.969-.641-3.969l1.443-8.006.321-1.815v-5.705l.079-.028a1.979,1.979,0,0,0,.762-.532l.361,5.741,11.3.4V201.35" transform="translate(-495.862 -182.351)" opacity="0.1"/>
    <path id="Path_90" data-name="Path 90" d="M567.065,199.548l.4,6.144.432,2.044.329,1.563s.842,12.026.6,12.627.12,1.082.171,1.4-.05,1.123-.011,1.484,0,.521-.921.392-2.206-.352-2.206-.352a17.138,17.138,0,0,1-4.369-.16,12.82,12.82,0,0,0-3.247-.4s-3.207.081-4.249-.04-1.6,1.283-2.285.881.8-4.288,1.282-5.412-.641-3.969-.641-3.969l1.443-8.006.321-1.815v-5.705l.079-.028a1.979,1.979,0,0,0,.762-.532l.361,5.741,11.3.4V199.35" transform="translate(-495.862 -180.591)" fill="#e7c7ca"/>
    <path id="Path_91" data-name="Path 91" d="M556.06,52.926a1.326,1.326,0,0,0-.361-.681,1.477,1.477,0,0,0-.635-.26,12.546,12.546,0,0,0-1.669-.32,2.671,2.671,0,0,0-.361-.749,8.266,8.266,0,0,0-4.974-3.589,3.155,3.155,0,0,0-3.006.827c-.378.465-.54,1.082-.921,1.539-.735.888-2.061,1-2.987,1.684a5.534,5.534,0,0,0-1.2,1.391,4.773,4.773,0,0,0-.889,1.779c-.24,1.312.627,2.563.786,3.887.361,2.962-2.814,5.59-2.214,8.512a5.271,5.271,0,0,0,3.552,3.513,2.465,2.465,0,0,1,1.5.98c.12.241.141.518.254.761a1.519,1.519,0,0,0,2.3.251,3.585,3.585,0,0,0,.962-2.436c.322-3.892-1.236-7.736-1.055-11.638.054-1.18.386-2.518,1.443-3.052,1.423-.722,3.134.481,4.7.251a9.323,9.323,0,0,1,.45,5.689,15.542,15.542,0,0,0-.711,3.115c-.047,1.63.832,3.118,1.592,4.559a2.425,2.425,0,0,1,.321.879,2.119,2.119,0,0,1-.172.92,12.959,12.959,0,0,0-1.254,3.459.559.559,0,0,0,.09.411.518.518,0,0,0,.31.139c1.3.222,2.422-.928,3.056-2.084a9.771,9.771,0,0,0,1.2-4.151c.131-2.448-.747-4.857-.693-7.308C555.538,58.42,556.8,55.614,556.06,52.926Z" transform="translate(-483.557 -46.791)" opacity="0.1"/>
    <path id="Path_92" data-name="Path 92" d="M557.06,51.926a1.325,1.325,0,0,0-.361-.681,1.477,1.477,0,0,0-.635-.26,12.546,12.546,0,0,0-1.669-.32,2.671,2.671,0,0,0-.361-.749,8.267,8.267,0,0,0-4.974-3.589,3.155,3.155,0,0,0-3.006.827c-.378.465-.54,1.082-.921,1.539-.735.888-2.061,1-2.987,1.684a5.539,5.539,0,0,0-1.2,1.391,4.777,4.777,0,0,0-.889,1.779c-.24,1.312.627,2.563.787,3.887.361,2.962-2.814,5.59-2.214,8.512a5.271,5.271,0,0,0,3.552,3.513,2.464,2.464,0,0,1,1.5.98c.12.241.141.518.254.761a1.519,1.519,0,0,0,2.3.251,3.585,3.585,0,0,0,.962-2.436c.322-3.892-1.236-7.736-1.055-11.638.054-1.18.386-2.518,1.443-3.052,1.423-.722,3.134.481,4.7.251a9.322,9.322,0,0,1,.45,5.69,15.555,15.555,0,0,0-.711,3.115c-.047,1.63.832,3.118,1.592,4.559a2.424,2.424,0,0,1,.321.879,2.115,2.115,0,0,1-.172.92,12.964,12.964,0,0,0-1.254,3.459.56.56,0,0,0,.09.411.518.518,0,0,0,.31.139c1.3.222,2.422-.928,3.056-2.084a9.769,9.769,0,0,0,1.2-4.151c.131-2.448-.747-4.857-.693-7.308C556.538,57.42,557.8,54.614,557.06,51.926Z" transform="translate(-484.437 -45.911)" fill="#3e373a"/>
    <path id="Path_93" data-name="Path 93" d="M581.79,467.965l4.771.153-.684-3.538-3.655.348Z" transform="translate(-511.824 -408.703)" fill="#c3c7d9"/>
    <path id="Path_94" data-name="Path 94" d="M631.127,411.889c-.321.4-1.563,1.122-1.684,1.363a5.922,5.922,0,0,1-2.365,1.082,19.7,19.7,0,0,0-3.608.922,35.149,35.149,0,0,1-4.523,1.2,12.853,12.853,0,0,1-1.37.247c-.721.04-8.618-2.646-8.618-2.646l1.523-1.563.084-.029c.43-.146,2.42-.818,3.523-1.138a8.107,8.107,0,0,0,2.687-1.844s2.124-.721,2.405-.8-.721-2.806-.721-2.806,4.609-.64,6.413-1.182,5.973-.342,6.735,1.783A7.831,7.831,0,0,1,631.127,411.889Z" transform="translate(-546.379 -361.012)" fill="#4b4b5b"/>
    <path id="Path_95" data-name="Path 95" d="M544.141,491.669a2.814,2.814,0,0,1-1.844.883c-.923-.079-4.148.241-4.148.241a6.467,6.467,0,0,0-1.625.942c-.754.594-1.154.12-1.229.019l-.013-.019c-.4,1.264-1.323.3-1.323.3a40.712,40.712,0,0,0,.278-4.329c-.123-.481.792-1.307.792-1.307l1.082-.275,2.742-.7,3.929,1.363Z" transform="translate(-480.399 -434.018)" fill="#e7c7ca"/>
    <path id="Path_96" data-name="Path 96" d="M536.108,493.26l-.812,5.631-.013-.019c-.4,1.264-1.323.3-1.323.3a40.713,40.713,0,0,0,.278-4.329c-.123-.481.792-1.307.792-1.307Z" transform="translate(-480.399 -439.156)" opacity="0.1"/>
    <path id="Path_97" data-name="Path 97" d="M599,360.08a6.564,6.564,0,0,0,3.969,0" transform="translate(-537.617 -321.992)" opacity="0.1"/>
    <path id="Path_98" data-name="Path 98" d="M659.29,371.42a1.754,1.754,0,0,0,1.563,0" transform="translate(-590.656 -331.968)" opacity="0.1"/>
    <path id="Path_99" data-name="Path 99" d="M659.29,378.622s1.483.2,1.764-.2" transform="translate(-590.656 -338.126)" opacity="0.1"/>
    <path id="Path_100" data-name="Path 100" d="M655.29,392.592a13.675,13.675,0,0,0,3.477-.842" transform="translate(-587.138 -349.853)" opacity="0.1"/>
    <path id="Path_101" data-name="Path 101" d="M584.62,391.75a6.612,6.612,0,0,0,2.726.842" transform="translate(-524.966 -349.853)" opacity="0.1"/>
    <path id="Path_102" data-name="Path 102" d="M618.938,475.171a12.843,12.843,0,0,1-1.37.247c-.722.04-8.618-2.646-8.618-2.646l1.523-1.563.084-.029c.241.17.438.315.578.426.663.522,1.3-.16,1.543-.16A19.458,19.458,0,0,1,615,473.169a7.22,7.22,0,0,1,2.245.842c.321.4,1.443.321,1.643.6A1.075,1.075,0,0,1,618.938,475.171Z" transform="translate(-546.37 -419.731)" opacity="0.1"/>
    <path id="Path_103" data-name="Path 103" d="M482.506,407.339a8.715,8.715,0,0,1-3.068-.361c-1.122-.473-4.85-1.563-5.932-.8s-3.688,1.443-2.486,4.49,1.764,3.127,1.764,3.127a4.342,4.342,0,0,1,.962,1c.361.562,3.728,1.844,4.57,1.844a6.988,6.988,0,0,1,4.409,1.443,9.061,9.061,0,0,0,3.969,1.6s2.646,1.082,3.469,1.323,4.588,1.282,5.471.962,1.443-2.326,1.443-2.326.4-1.8.2-2.084-1.323-.2-1.643-.6a7.21,7.21,0,0,0-2.245-.842,19.391,19.391,0,0,0-2.32-1.725c-.241,0-.88.681-1.543.16a35.182,35.182,0,0,0-4.15-2.646C483.853,411.107,482.506,407.339,482.506,407.339Z" transform="translate(-424.755 -362.315)" fill="#4b4b5b"/>
    <path id="Path_104" data-name="Path 104" d="M536.27,427.08a2.3,2.3,0,0,1,1.971.521,34.863,34.863,0,0,0,4.2,2.412" transform="translate(-482.431 -380.893)" opacity="0.1"/>
    <path id="Path_105" data-name="Path 105" d="M699.051,427s-4.29.649-5.091,1.531" transform="translate(-621.157 -380.864)" opacity="0.1"/>
    <path id="Path_106" data-name="Path 106" d="M696.644,493.433h-.189a32.349,32.349,0,0,0-3.419,0c-.521.12-7.417,0-7.417,0l1.348-.28s-.5-1.753-.183-1.9c0,0-1.8-1.188-.444-1.99a4.219,4.219,0,0,1,2.826-.464l3.414-1.157.655-.222s3.848.2,4.89,2.846A2.143,2.143,0,0,1,696.644,493.433Z" transform="translate(-613.82 -434.018)" fill="#e7c7ca"/>
    <path id="Path_107" data-name="Path 107" d="M747.572,493.477h-.189c1.12-.924,3.652-3.735-3.874-5.785l.656-.222s3.848.2,4.89,2.847A2.137,2.137,0,0,1,747.572,493.477Z" transform="translate(-664.748 -434.062)" opacity="0.1"/>
    <circle id="Ellipse_13" data-name="Ellipse 13" cx="0.21" cy="0.21" r="0.21" transform="translate(75.539 55.877)" fill="#4b4b5b"/>
    <circle id="Ellipse_14" data-name="Ellipse 14" cx="0.21" cy="0.21" r="0.21" transform="translate(74.316 56.225)" fill="#4b4b5b"/>
    <g id="Group_5" data-name="Group 5" transform="translate(54.146 7.57)" opacity="0.1">
      <path id="Path_108" data-name="Path 108" d="M608.651,111.012a9.331,9.331,0,0,0-.69-3.865c-1.563.233-3.276-.973-4.7-.251-1.053.534-1.384,1.872-1.443,3.052-.014.311-.017.623-.011.934,0-.111,0-.222.011-.333.055-1.18.386-2.518,1.443-3.052,1.424-.722,3.134.481,4.7.251A9.3,9.3,0,0,1,608.651,111.012Z" transform="translate(-594.23 -106.62)"/>
      <path id="Path_109" data-name="Path 109" d="M551.844,112.558a4.008,4.008,0,0,0-.016-.786c-.127-1.058-.706-2.07-.811-3.1-.135,1.245.658,2.44.811,3.7A.755.755,0,0,1,551.844,112.558Z" transform="translate(-549.538 -108.386)"/>
      <path id="Path_110" data-name="Path 110" d="M547.466,204.867a3.537,3.537,0,0,1-.962,2.438,1.517,1.517,0,0,1-2.3-.251c-.12-.241-.138-.521-.255-.761-.267-.551-.924-.765-1.5-.98A5.261,5.261,0,0,1,538.9,201.8a3.688,3.688,0,0,1-.064-.469,3.79,3.79,0,0,0,.064,1.07,5.274,5.274,0,0,0,3.551,3.513c.574.215,1.23.429,1.5.98.12.241.141.518.255.761a1.519,1.519,0,0,0,2.3.251,3.586,3.586,0,0,0,.962-2.438,13.742,13.742,0,0,0,.037-1.412C547.5,204.329,547.487,204.6,547.466,204.867Z" transform="translate(-538.823 -189.903)"/>
      <path id="Path_111" data-name="Path 111" d="M687.93,112.465v.521c.067-2.237.887-4.486.807-6.676C688.674,108.335,687.976,110.406,687.93,112.465Z" transform="translate(-669.998 -106.31)"/>
      <path id="Path_112" data-name="Path 112" d="M652.671,192.8a1.55,1.55,0,0,0,.028-.434,2.406,2.406,0,0,0-.321-.879,10.806,10.806,0,0,1-1.581-4.145c0,.063-.009.12-.01.188-.048,1.628.831,3.118,1.591,4.559A2.886,2.886,0,0,1,652.671,192.8Z" transform="translate(-637.32 -177.595)"/>
      <path id="Path_113" data-name="Path 113" d="M659.451,216.5a9.787,9.787,0,0,1-1.213,4.151c-.635,1.156-1.757,2.307-3.057,2.084a.511.511,0,0,1-.31-.141.3.3,0,0,1-.057-.094c-.014.094-.026.189-.034.285a.554.554,0,0,0,.09.41.511.511,0,0,0,.31.141c1.3.222,2.422-.928,3.057-2.084a9.786,9.786,0,0,0,1.213-4.151c.015-.281.016-.562.007-.842C659.456,216.341,659.456,216.42,659.451,216.5Z" transform="translate(-640.828 -203.037)"/>
    </g>
    <path id="Path_114" data-name="Path 114" d="M695.31,507.969a4.255,4.255,0,0,0,5.051-1.549" transform="translate(-622.345 -450.733)" fill="none" stroke="#000" stroke-miterlimit="10" stroke-width="1" opacity="0.1"/>
    <path id="Path_115" data-name="Path 115" d="M700.29,532.488a5.934,5.934,0,0,1,5.652-.053" transform="translate(-626.726 -473.02)" fill="none" stroke="#000" stroke-miterlimit="10" stroke-width="1" opacity="0.1"/>
    <path id="Path_116" data-name="Path 116" d="M561.93,525.781s1.044-2.355,3.831-.559" transform="translate(-505.005 -466.68)" fill="none" stroke="#000" stroke-miterlimit="10" stroke-width="1" opacity="0.1"/>
    <path id="Path_117" data-name="Path 117" d="M533.79,228.038l2.129-1.924s8.253-.541,8.595,2.265c0,0,2.926-3.326,9.08-2.586l2.6,2.073-7.2,3.158-6.993,2.426-5.151-2.305Z" transform="translate(-480.249 -203.759)" opacity="0.1"/>
    <path id="Path_118" data-name="Path 118" d="M533.79,229.038l2.129-1.924s8.253-.541,8.595,2.264c0,0,2.926-3.326,9.08-2.586l2.6,2.073-7.2,3.158-6.993,2.426-5.151-2.305Z" transform="translate(-480.249 -204.639)" fill="#d5d6db"/>
    <path id="Path_119" data-name="Path 119" d="M437.38,204.83l.942,11.265,9.982.5-.433-11.217-.008-.189Z" transform="translate(-384.781 -180.191)" opacity="0.1"/>
    <path id="Path_120" data-name="Path 120" d="M437.38,202.83l.942,11.265,9.982.5-.433-11.217-.008-.189Z" transform="translate(-384.781 -178.431)" fill="#abc0e2"/>
    <path id="Path_121" data-name="Path 121" d="M560.007,202.83l-10.3,1.544v11.315l10.062-1.454Z" transform="translate(-483.602 -178.431)" opacity="0.1"/>
    <path id="Path_122" data-name="Path 122" d="M560.007,200.83l-10.3,1.544v11.315l10.062-1.454Z" transform="translate(-483.602 -176.672)" fill="#abc0e2"/>
    <path id="Path_123" data-name="Path 123" d="M574.452,223.79l-5.562.618.122,1.9,5.437-.594Z" transform="translate(-500.475 -196.87)" fill="#fff" opacity="0.3"/>
    <path id="Path_124" data-name="Path 124" d="M536.522,316.691l.566,1.524a1.893,1.893,0,0,0,1.763.361,9,9,0,0,0,2.125-.891,8.058,8.058,0,0,0,.962-2.115,7.5,7.5,0,0,1,1.122-2.405c.56-.481,2.044-7.109,0-6.46s-3.608,6.661-3.608,6.661a1.426,1.426,0,0,1-.882.481c-.521.041-1.563-.081-1.764.361S535.921,315.81,536.522,316.691Z" transform="translate(-482.44 -274.996)" fill="#be6f72"/>
    <path id="Path_125" data-name="Path 125" d="M616.2,253.573a3.464,3.464,0,0,1-3.02-.753l.434,11.215a3.06,3.06,0,0,0,2.585.854Z" transform="translate(-550.092 -227.631)" opacity="0.1"/>
    <path id="Path_126" data-name="Path 126" d="M616.2,251.573a3.463,3.463,0,0,1-3.02-.753l.434,11.215a3.06,3.06,0,0,0,2.585.854Z" transform="translate(-550.092 -225.871)" fill="#abc0e2"/>
    <path id="Path_127" data-name="Path 127" d="M616.2,251.573a3.463,3.463,0,0,1-3.02-.753l.434,11.215a3.06,3.06,0,0,0,2.585.854Z" transform="translate(-550.092 -225.871)" opacity="0.1"/>
    <path id="Path_128" data-name="Path 128" d="M640.29,238.393s4.189-1.281,5.281-1.1" transform="translate(-573.941 -213.956)" opacity="0.1"/>
    <path id="Path_129" data-name="Path 129" d="M566.668,236.522s-4.06-.962-4.738-.689" transform="translate(-505.005 -212.644)" opacity="0.1"/>
    <path id="Path_130" data-name="Path 130" d="M662.25,243s2.8-1.027,3.813-.539" transform="translate(-593.26 -218.398)" opacity="0.1"/>
    <path id="Path_131" data-name="Path 131" d="M650.52,446.717a9.212,9.212,0,0,1,1.381-.858,22.54,22.54,0,0,0,2.044-1.25" transform="translate(-582.941 -396.356)" opacity="0.1"/>
    <path id="Path_132" data-name="Path 132" d="M538.969,360.08a12.959,12.959,0,0,1-2.285,1.563c-.528.126-.854,1.247-.854,1.247" transform="translate(-482.044 -321.992)" opacity="0.1"/>
    <path id="Path_133" data-name="Path 133" d="M659.866,314.938l-.56,1.527a1.894,1.894,0,0,1-1.764.361,9,9,0,0,1-2.125-.891,8.017,8.017,0,0,1-.962-2.115,7.466,7.466,0,0,0-1.122-2.405c-.562-.481-2.044-7.109,0-6.46s3.608,6.661,3.608,6.661a1.426,1.426,0,0,0,.881.481c.521.041,1.564-.081,1.764.361S660.468,314.06,659.866,314.938Z" transform="translate(-584.495 -273.456)" fill="#be6f72"/>
    <path id="Path_134" data-name="Path 134" d="M707.15,364.94s1.148.738,1.144,1.621" transform="translate(-632.761 -326.267)" opacity="0.1"/>
    <circle id="Ellipse_15" data-name="Ellipse 15" cx="5.372" cy="5.372" r="5.372" transform="translate(59.272 6.525)" fill="#be6f72"/>
    <path id="Path_135" data-name="Path 135" d="M578.611,88.869a11,11,0,0,0,1.846-.7,6.99,6.99,0,0,1,4.346.287,5.636,5.636,0,0,0,1.658.361,1.678,1.678,0,0,0,1.46-.722,1.631,1.631,0,0,0-.01-1.507,4.243,4.243,0,0,0-.981-1.211c-1.251-1.181-2.8-2.285-4.518-2.165a6.219,6.219,0,0,0-1.986.569,21.9,21.9,0,0,0-2.331,1.174c-.578.336-1.65.784-1.983,1.4C575.356,87.736,577.432,89.054,578.611,88.869Z" transform="translate(-517.34 -78.414)" fill="#3e373a"/>
    <path id="Path_136" data-name="Path 136" d="M587.918,112.712a1.678,1.678,0,0,1-1.46.722,5.642,5.642,0,0,1-1.66-.354,6.981,6.981,0,0,0-4.346-.287,10.468,10.468,0,0,1-1.846.7,2.591,2.591,0,0,1-2.646-1.731c-.186,1.216,1.587,2.257,2.646,2.091a11.065,11.065,0,0,0,1.846-.7,6.981,6.981,0,0,1,4.346.287,5.413,5.413,0,0,0,1.66.354,1.691,1.691,0,0,0,1.46-.722,1.407,1.407,0,0,0,.168-.879A1.292,1.292,0,0,1,587.918,112.712Z" transform="translate(-517.336 -103.535)" opacity="0.1"/>
    <path id="Path_137" data-name="Path 137" d="M1023.644,661.63s.713.932-.33,2.34-1.9,2.6-1.555,3.474c0,0,1.573-2.614,2.853-2.652S1025.05,663.2,1023.644,661.63Z" transform="translate(-909.467 -587.278)" fill="#abc0e2"/>
    <path id="Path_138" data-name="Path 138" d="M1023.942,661.63a1.148,1.148,0,0,1,.146.292c1.248,1.467,1.915,2.837.713,2.871-1.118.033-2.459,2.032-2.78,2.536a1.176,1.176,0,0,0,.037.12s1.573-2.615,2.853-2.652S1025.348,663.2,1023.942,661.63Z" transform="translate(-909.765 -587.278)" opacity="0.1"/>
    <path id="Path_139" data-name="Path 139" d="M1047.795,669.975c0,.328-.037.594-.082.594s-.083-.266-.083-.594.046-.173.091-.173S1047.795,669.647,1047.795,669.975Z" transform="translate(-932.295 -594.435)" fill="#ffd037"/>
    <path id="Path_140" data-name="Path 140" d="M1048.679,673.077c-.287.156-.539.251-.56.212s.193-.2.481-.361.174-.043.2,0S1048.968,672.92,1048.679,673.077Z" transform="translate(-932.724 -597.145)" fill="#ffd037"/>
    <path id="Path_141" data-name="Path 141" d="M994.959,661.63s-.713.932.33,2.34,1.9,2.6,1.554,3.474c0,0-1.572-2.614-2.853-2.652S993.557,663.2,994.959,661.63Z" transform="translate(-884.551 -587.278)" fill="#abc0e2"/>
    <path id="Path_142" data-name="Path 142" d="M994.959,661.63a1.164,1.164,0,0,0-.146.292c-1.248,1.467-1.914,2.837-.713,2.871,1.117.033,2.459,2.032,2.78,2.536a.953.953,0,0,1-.038.12s-1.572-2.615-2.853-2.652S993.557,663.2,994.959,661.63Z" transform="translate(-884.551 -587.278)" opacity="0.1"/>
    <path id="Path_143" data-name="Path 143" d="M995.64,669.975c0,.328.036.594.082.594s.083-.266.083-.594-.047-.173-.091-.173S995.64,669.647,995.64,669.975Z" transform="translate(-886.557 -594.435)" fill="#ffd037"/>
    <path id="Path_144" data-name="Path 144" d="M990.58,673.077c.287.156.539.251.56.212s-.194-.2-.481-.361-.174-.043-.2,0S990.291,672.92,990.58,673.077Z" transform="translate(-881.951 -597.145)" fill="#ffd037"/>
    <ellipse id="Ellipse_16" data-name="Ellipse 16" cx="7.456" cy="1.144" rx="7.456" ry="1.144" transform="translate(104.837 85.014)" fill="#abc0e2" opacity="0.1"/>
    <path id="Path_145" data-name="Path 145" d="M998.076,696.345l-.036.291-.05.411-.021.172-.05.411-.021.172-.049.41-.571,4.678c-.051.417-.732.743-1.556.743h-2.964c-.824,0-1.5-.326-1.556-.743l-.571-4.678-.05-.41-.02-.172-.05-.411-.022-.172-.049-.411-.036-.291c-.028-.241.34-.435.807-.435h6.063C997.735,695.91,998.1,696.108,998.076,696.345Z" transform="translate(-881.946 -617.435)" fill="#65617d"/>
    <path id="Path_146" data-name="Path 146" d="M909.734,658.53l-.049.411h-7.5l-.05-.411Z" transform="translate(-793.64 -579.329)" fill="#9d9cb5"/>
    <path id="Path_147" data-name="Path 147" d="M910.182,663.38l-.049.411H902.77l-.05-.411Z" transform="translate(-794.159 -583.595)" fill="#9d9cb5"/>
    <path id="Path_148" data-name="Path 148" d="M910.639,668.23l-.051.411h-7.219l-.049-.411Z" transform="translate(-794.687 -587.862)" fill="#9d9cb5"/>
  </g>
</svg>
