<svg xmlns="http://www.w3.org/2000/svg" xmlns:xlink="http://www.w3.org/1999/xlink" width="559.965" height="361.111" viewBox="0 0 559.965 361.111">
  <defs>
    <style>
      .cls-1, .cls-2 {
        fill: #abc0e2;
      }

      .cls-2, .cls-5 {
        opacity: 0.2;
      }

      .cls-3, .cls-5 {
        fill: #f5f5f5;
      }

      .cls-4 {
        fill: none;
        stroke: #535461;
        stroke-miterlimit: 10;
        stroke-width: 2px;
      }

      .cls-6 {
        fill: url(#linear-gradient);
      }

      .cls-7 {
        fill: #535461;
      }

      .cls-8 {
        fill: #fff;
      }

      .cls-9 {
        fill: url(#linear-gradient-3);
      }

      .cls-10 {
        fill: url(#linear-gradient-4);
      }

      .cls-11 {
        fill: #f7c4a7;
      }

      .cls-12 {
        opacity: 0.05;
      }

      .cls-13 {
        fill: #575988;
      }

      .cls-14 {
        opacity: 0.1;
      }

      .cls-15 {
        fill: #f3b5b7;
      }

      .cls-16 {
        fill: #dddbe2;
      }

      .cls-17 {
        fill: #fc6681;
      }
    </style>
    <linearGradient id="linear-gradient" x1="0.5" y1="1" x2="0.5" gradientUnits="objectBoundingBox">
      <stop offset="0" stop-color="gray" stop-opacity="0.251"/>
      <stop offset="0.54" stop-color="gray" stop-opacity="0.122"/>
      <stop offset="1" stop-color="gray" stop-opacity="0.102"/>
    </linearGradient>
    <linearGradient id="linear-gradient-3" x1="0.5" y1="1" x2="0.5" y2="0" xlink:href="#linear-gradient"/>
    <linearGradient id="linear-gradient-4" x1="0.5" y1="1" x2="0.5" y2="0" xlink:href="#linear-gradient"/>
  </defs>
  <g id="Group_61" data-name="Group 61" transform="translate(-104.326 -2254.749)">
    <path id="Path_180" data-name="Path 180" class="cls-1" d="M413.165,128.972c-34.346-1.2-67.064-12.366-98.3-24.583s-62.176-25.753-95.7-32.225C197.6,68,172.942,67.414,155.573,79.053c-16.722,11.223-22.125,30.541-25.027,48.487-2.186,13.5-3.471,27.7,2.521,40.343,4.155,8.775,11.537,16.15,16.637,24.583,17.762,29.243,5.211,65.3-14.037,93.858-9.022,13.4-19.5,26.186-26.465,40.433s-10.189,30.595-4.1,45.142c6.045,14.429,20.442,25.245,36.034,32.861,31.677,15.471,68.99,19.9,105.4,22.4,80.575,5.553,161.574,3.148,242.361.743,29.9-.892,59.926-1.8,89.336-6.45,16.335-2.587,33.195-6.686,45.056-16.594,15.051-12.575,18.781-33.871,8.7-49.636-16.924-26.448-63.683-33.016-75.528-61.4-6.506-15.621.181-33.021,9.638-47.514,20.294-31.081,54.305-58.352,56.1-93.88,1.231-24.406-15.125-48.84-40.407-60.388-26.5-12.147-63.253-10.608-82.793,9.427C478.864,122.111,443.488,130.031,413.165,128.972Z" transform="translate(26.653 2185.311)"/>
    <g id="undraw_web_devices_ad58" transform="translate(104.327 2307)">
      <path id="Path_209" data-name="Path 209" class="cls-2" d="M157.349,144.035a37.161,37.161,0,0,0-11.885,1.155,19.793,19.793,0,0,0-13.512,22.331c1.578,8.894,8.067,16.643,14.8,23.725s14.03,14.085,17.723,22.55c1.841,4.225,2.7,8.958.831,13.179-2.887,6.5-11.591,10.138-19.947,10.894s-16.747-.717-25.133-1.209a31.594,31.594,0,0,0-10.451.722,27.658,27.658,0,0,0-9.456,5.355c-10.874,8.65-19.579,20.45-18.171,32.847,1.593,14.05,15.8,25.153,31.354,31.11,5.151,1.991,10.6,3.573,15.135,6.39,11.944,7.43,14.627,21.366,13.438,33.664s-5.241,24.611-2.986,36.8c2.653,14.179,14.393,26.99,30.23,32.972,14.109,5.33,31.767,4.977,44.294-2.543,6.107-3.673,10.725-8.774,14.741-14.05a113.343,113.343,0,0,0,14.657-25.382c1.747-4.225,3.389-8.769,7.465-11.706a25.653,25.653,0,0,1,8.9-3.6c9.615-2.369,19.743-3.016,29.448-5.126s19.47-6.057,24.745-13.074c7.465-9.954,3.981-22.7,4.016-34.41.06-26.706,19.465-50.61,26.626-76.644,2.339-8.505,3.21-17.917-2.016-25.506-3.549-5.151-9.536-8.869-15.826-11.74-13.841-6.316-29.573-9.128-45.046-11.865-21.505-3.8-47.619-4.3-64.286-16.6C201.046,152.461,179.163,144.035,157.349,144.035Z" transform="translate(-82 -144)"/>
      <ellipse id="Ellipse_27" data-name="Ellipse 27" class="cls-3" cx="231.424" cy="61.972" rx="231.424" ry="61.972" transform="translate(52.754 180.64)"/>
      <path id="Path_210" data-name="Path 210" class="cls-1" d="M1013.924,330.86a42.579,42.579,0,0,0-7.764,44.294c10.068,26.462-17.26,70.467-17.26,70.467s.294-.045.836-.139c36.625-6.47,54.825-48.355,34.46-79.476C1016.626,354.44,1010.41,340.883,1013.924,330.86Z" transform="translate(-537.548 -237.862)"/>
      <path id="Path_211" data-name="Path 211" class="cls-4" d="M1013.924,330.86s-10.068,21.858,0,39.691,1.727,67.879-25.024,75.071" transform="translate(-537.548 -237.862)"/>
      <path id="Path_212" data-name="Path 212" class="cls-1" d="M1041.1,475.565s-20.35-3.24-22.2,15-39.128,20.763-39.128,20.763l.7.463c30.777,20.2,60.22,12.87,55.741-13.935C1034.58,487.858,1034.715,477.84,1041.1,475.565Z" transform="translate(-532.962 -310.438)"/>
      <path id="Path_213" data-name="Path 213" class="cls-5" d="M1041.1,475.565s-20.35-3.24-22.2,15-39.128,20.763-39.128,20.763l.7.463c30.777,20.2,60.22,12.87,55.741-13.935C1034.58,487.858,1034.715,477.84,1041.1,475.565Z" transform="translate(-532.962 -310.438)"/>
      <path id="Path_214" data-name="Path 214" class="cls-4" d="M1041.1,475.79s-15.8,3.484-14.5,17.827-23.456,31.578-46.832,17.917" transform="translate(-532.962 -310.663)"/>
      <path id="Path_215" data-name="Path 215" class="cls-6" d="M670.65,401.351H638.678a10.661,10.661,0,0,0,1.115-4.763v-145.6a10.705,10.705,0,0,0-10.705-10.705H381.568a10.705,10.705,0,0,0-10.71,10.705V396.594a10.66,10.66,0,0,0,1.115,4.763h-33.1a2.832,2.832,0,0,0-2.832,2.832v2.284a15.836,15.836,0,0,0,15.836,15.821H657.645a15.836,15.836,0,0,0,15.836-15.836v-2.284a2.832,2.832,0,0,0-2.832-2.822Zm-197.029,9.058-2.727-3.111h68.044l-3.036,3.116Z" transform="translate(-209.608 -192.363)"/>
      <rect id="Rectangle_44" data-name="Rectangle 44" class="cls-7" width="262.838" height="163.236" rx="23.26" transform="translate(164.291 49.978)"/>
      <rect id="Rectangle_45" data-name="Rectangle 45" class="cls-8" width="251.217" height="133.355" transform="translate(169.82 73.772)"/>
      <circle id="Ellipse_28" data-name="Ellipse 28" class="cls-8" cx="2.215" cy="2.215" r="2.215" transform="translate(293.217 59.936)"/>
      <path id="Path_216" data-name="Path 216" class="cls-7" d="M547.692,560.73l-8.635,8.854H478.19l-7.8-8.854H346.5a2.767,2.767,0,0,0-2.767,2.767v2.23A15.478,15.478,0,0,0,359.208,581.2H658.044a15.478,15.478,0,0,0,15.478-15.478V563.5a2.767,2.767,0,0,0-2.767-2.767Z" transform="translate(-213.471 -353.329)"/>
      <path id="Path_217" data-name="Path 217" class="cls-6" d="M463.642,301.65H357.67a9.71,9.71,0,0,0-9.72,9.695V458.163a9.71,9.71,0,0,0,9.72,9.695H463.642a9.71,9.71,0,0,0,9.72-9.695V311.345a9.71,9.71,0,0,0-9.72-9.695Z" transform="translate(-215.591 -223.19)"/>
      <rect id="Rectangle_46" data-name="Rectangle 46" class="cls-7" width="122.431" height="162.744" rx="20" transform="translate(133.847 80.451)"/>
      <rect id="Rectangle_47" data-name="Rectangle 47" class="cls-8" width="109.989" height="131.957" transform="translate(140.068 95.844)"/>
      <circle id="Ellipse_29" data-name="Ellipse 29" class="cls-8" cx="1.493" cy="1.493" r="1.493" transform="translate(193.072 86.423)"/>
      <circle id="Ellipse_30" data-name="Ellipse 30" class="cls-8" cx="4.479" cy="4.479" r="4.479" transform="translate(190.086 230.752)"/>
      <path id="Path_218" data-name="Path 218" class="cls-9" d="M357.752,401.65H303.34a5.38,5.38,0,0,0-5.39,5.37V526.176a5.38,5.38,0,0,0,5.39,5.37h54.412a5.38,5.38,0,0,0,5.39-5.37V407.02a5.38,5.38,0,0,0-5.39-5.37Z" transform="translate(-190.475 -273.421)"/>
      <rect id="Rectangle_48" data-name="Rectangle 48" class="cls-7" width="64.202" height="128.403" rx="11" transform="translate(107.968 129.224)"/>
      <rect id="Rectangle_49" data-name="Rectangle 49" class="cls-8" width="54.746" height="104.514" transform="translate(112.696 141.169)"/>
      <circle id="Ellipse_31" data-name="Ellipse 31" class="cls-8" cx="0.498" cy="0.498" r="0.498" transform="translate(133.101 134.699)"/>
      <rect id="Rectangle_50" data-name="Rectangle 50" class="cls-8" width="10.949" height="0.995" rx="0.498" transform="translate(136.087 134.699)"/>
      <circle id="Ellipse_32" data-name="Ellipse 32" class="cls-8" cx="3.484" cy="3.484" r="3.484" transform="translate(136.336 247.176)"/>
      <path id="Path_219" data-name="Path 219" class="cls-4" d="M283.108,608.078s-6.6-22.4,1.239-38.889a35.381,35.381,0,0,0,2.877-22.2,59.506,59.506,0,0,0-3.14-10.417" transform="translate(-181.715 -341.193)"/>
      <path id="Path_220" data-name="Path 220" class="cls-1" d="M287.4,510.607c0,2.747-4.977,10.705-4.977,10.705s-4.977-7.963-4.977-10.705a4.977,4.977,0,1,1,9.954,0Z" transform="translate(-180.178 -325.652)"/>
      <path id="Path_221" data-name="Path 221" class="cls-1" d="M303.914,538.247c-1.493,2.3-9.994,6.286-9.994,6.286s.154-9.386,1.647-11.691a4.977,4.977,0,1,1,8.346,5.4Z" transform="translate(-188.451 -338.083)"/>
      <path id="Path_222" data-name="Path 222" class="cls-1" d="M301.33,589c-2.454,1.234-11.8.383-11.8.383s4.872-8.023,7.321-9.257A4.977,4.977,0,0,1,301.33,589Z" transform="translate(-186.246 -362.848)"/>
      <path id="Path_223" data-name="Path 223" class="cls-1" d="M292.126,628.878c-2.21,1.632-11.566,2.369-11.566,2.369s3.444-8.729,5.654-10.362a4.977,4.977,0,0,1,5.913,7.993Z" transform="translate(-181.74 -383.125)"/>
      <path id="Path_224" data-name="Path 224" class="cls-1" d="M271.213,551.108c1.991,1.911,11.143,3.9,11.143,3.9s-2.245-9.113-4.215-11.024a4.977,4.977,0,1,0-6.928,7.132Z" transform="translate(-176.201 -344.125)"/>
      <path id="Path_225" data-name="Path 225" class="cls-1" d="M259.5,596.495c2.454,1.234,11.8.383,11.8.383s-4.872-8.023-7.321-9.257A4.977,4.977,0,1,0,259.5,596.5Z" transform="translate(-169.688 -366.518)"/>
      <path id="Path_226" data-name="Path 226" class="cls-1" d="M256.606,643.478c2.21,1.632,11.566,2.369,11.566,2.369s-3.444-8.729-5.654-10.362a4.977,4.977,0,0,0-5.913,7.993Z" transform="translate(-168.79 -390.459)"/>
      <path id="Path_227" data-name="Path 227" class="cls-10" d="M848.618,460.953c-5.509-6.684-12.183-14.363-11.248-23.257.757-7.2-1.055-13.861-.7-21.087.5-10.267-1.563-18.3-8.958-24.884-4.32-3.847-11.541-6.868-13.691-6.1-4.26,1.523-8.909.941-13.293,1.991-3.33.776-5.544,1.991-6.918,3.484-2.762,2.488-2.807,5.972-1.548,9.68a16.349,16.349,0,0,0,8.077,22.933c-3.071,1.284-5.723,4.24-6.758,10.242a70.024,70.024,0,0,1-3.25,12.1,19.663,19.663,0,0,1-1.991.8c.149.06.3.1.453.154-.323.124-.642.249-1,.358a10.558,10.558,0,0,0,1.817.528,69.286,69.286,0,0,1-8.958,16.289s-9.282,2.05-12.89-1.538c0,0,.587.687,1.384,1.717-3.529-1.463-9.322-3.852-14.274-5.818-3.593-1.428-4.514,0-4.479,1.991a6.629,6.629,0,0,0-2.488.836,24.22,24.22,0,0,0-3.33-1.792c-2.06-.5-8.764-4.1-15.468,8.2-3.9,7.152-13.905,20.206-21.595,29.861-14.956,6.878-34.425,15.587-41.661,17.777h-4.638c-.607-1-1.03-1.622-1.03-1.622l-.358.239-.154-.239s-9.108,6.306-18.355,6.356a17.42,17.42,0,0,1-3.9-.5,37.562,37.562,0,0,0-9.386-1.493c-2.533-.045-3.981.557-4.857,1.692h0a4.447,4.447,0,0,0-.323.468h0a5.489,5.489,0,0,0-.269.5h0c-.08.179-.159.368-.229.562a1.154,1.154,0,0,0,.289.97,5.179,5.179,0,0,0,.4.5l.259.279a41.12,41.12,0,0,0,5.922,4.584c.761.5,1.568,1.045,2.409,1.588l1.6,1,1.428.891.572.353.637.388,1.14.692.677.408,1.279.761L640,534.4c2.707,1.6,5.4,3.145,7.839,4.519l1.7,1.015.164.09,1.1.612,1.891,1.05,1.3.717.607.333.652.358.129.07,1.135.617a1.642,1.642,0,0,0,1.324-.358c.328-1.394,1.13-4.38,1.991-4.609s4.589-6.744,5.639-11.1h10.063a44.359,44.359,0,0,0,5.893-.906c-2.6,1.851-5.171,3.016-7.172,2.518-4.23-1.05-8.237,1.528-8.64,4.071a.653.653,0,0,1-.05.159c-.015.055-.025.1-.035.154s-.03.124-.04.189a.855.855,0,0,0,0,.159v.687a1,1,0,0,0,.05.2c.02.07,0,.09.035.129a2.488,2.488,0,0,0,.109.264l.025.065a2.683,2.683,0,0,0,.189.314l.08.1a2.1,2.1,0,0,0,.164.2l.115.115c.06.06.124.119.189.179l.139.115.224.164.164.109.269.159.179.094.338.159.169.075c.179.075.368.144.572.209.323.1.707.214,1.14.323l.433.1.632.144.333.075q.647.139,1.374.279l.672.124.547.1,1.259.219c.786.134,1.607.269,2.488.4l2.17.328,2.827.4.627.085,1,.139,1.458.194,1,.129h0l2.583.328.806.1,1.627.2c2.14.259,4.21.5,6.117.712l2.2.249,1.115.124.5.05,1.334.144.742.08.916.095,1.289.134h.139l.826.085h0a.751.751,0,0,0,.831-.732h0v-.085a.727.727,0,0,0,.12-.388,16.923,16.923,0,0,1,.463-3.643c.055-.2.119-.413.189-.622l.08-.239c.09-.254.179-.5.284-.771a5.538,5.538,0,0,0,.194-.567.7.7,0,0,1,.055-.184c.02-.065.05-.2.07-.309,1.035-3.539-.214-10.138-.572-12.731a13.826,13.826,0,0,0-.567-2.439.991.991,0,0,0,.194,0,5.867,5.867,0,0,0,1.493-.811c7.6-2.712,14.015-5.813,16.04-8.918a13.89,13.89,0,0,1,9.794,1.025c3.937,1.956,33.718,11.676,47.584,16.165,2.489,2.145,4.439,3.4,5.519,3.3,0,0,17.653,2.857,24.75-2.717.632.438,1.03.672,1.03.672s10.312-5.121,11.86-11.785c.5-2.16.951-5.345,1.413-8.869a12.9,12.9,0,0,0,3.743-9.063c.324-11.188,4.658-23.969,7.873-35.336,3.9.309,5.41-.428,8.988-2.195l-.159-.2C848.17,461.162,848.394,461.062,848.618,460.953ZM789.5,477.71l-1.991-.662a16.423,16.423,0,0,0,1.717-2.857ZM778.4,482.418l11.945,7.167.1,1.458a10.455,10.455,0,0,0,.1,3.335c-5.266-4.678-11.427-10.357-12.154-11.964Zm-4.877-10.451c-1.3-.538-2.384-1.025-3.125-1.428,1,.07,1.941.129,2.767.174a6.189,6.189,0,0,1,.358,1.254Zm-31.991,11.681s2.06-4.609,6.7,3.076c.722,1.194,2.05,3.1,3.807,5.45l-13.517-1.807a19.406,19.406,0,0,0,3.006-6.714Z" transform="translate(-353.42 -265.312)"/>
      <path id="Path_228" data-name="Path 228" class="cls-11" d="M900.062,537.9s-9.456-3.981-16.921-6.968-2.986,6.968-2.986,6.968,12.442,3.484,12.442,3.982,10.451,1,10.451,1Z" transform="translate(-482.255 -338.082)"/>
      <path id="Path_229" data-name="Path 229" class="cls-12" d="M900.062,537.9s-9.456-3.981-16.921-6.968-2.986,6.968-2.986,6.968,12.442,3.484,12.442,3.982,10.451,1,10.451,1Z" transform="translate(-482.255 -338.082)"/>
      <path id="Path_230" data-name="Path 230" class="cls-13" d="M957.292,464.176s-16.921-8.958-19.907,8.461A71.115,71.115,0,0,1,924.942,502s-8.958,1.991-12.442-1.493c0,0,8.461,9.954,4.479,10.949,0,0,8.958,6.47,12.94,4.479s6.968-15.428,8.461-18.912S945.347,463.18,957.292,464.176Z" transform="translate(-499.172 -303.672)"/>
      <path id="Path_231" data-name="Path 231" class="cls-14" d="M957.292,464.176s-16.921-8.958-19.907,8.461A71.115,71.115,0,0,1,924.942,502s-8.958,1.991-12.442-1.493c0,0,8.461,9.954,4.479,10.949,0,0,8.958,6.47,12.94,4.479s6.968-15.428,8.461-18.912S945.347,463.18,957.292,464.176Z" transform="translate(-499.172 -303.672)"/>
      <path id="Path_232" data-name="Path 232" class="cls-11" d="M983.5,441.37s10.451,11.945,10.949,21.9,11.944-10.451,12.94-10.949-9.954-17.419-10.949-22.894S983.5,441.37,983.5,441.37Z" transform="translate(-534.836 -286.838)"/>
      <path id="Path_233" data-name="Path 233" class="cls-11" d="M909.344,320.75l-6.594,5.972,3.111,12.567,8.461-7.963-1-7.963Z" transform="translate(-453.464 -161.117)"/>
      <path id="Path_234" data-name="Path 234" class="cls-11" d="M627.947,498.5H616.5l4.479,10.949,10.949-2.986Z" transform="translate(-309.677 -250.403)"/>
      <path id="Path_235" data-name="Path 235" class="cls-14" d="M667.413,639.33s-11.855,8.257-21.983,5.689-12.88-1.608-14.06,1.707c-1.09,3.051,28.289,19.186,32.972,21.734a.538.538,0,0,0,.781-.348c.318-1.354,1.09-4.255,1.916-4.479,1.075-.289,5.972-9.456,5.7-13.059S667.413,639.33,667.413,639.33Z" transform="translate(-357.942 -392.811)"/>
      <path id="Path_236" data-name="Path 236" class="cls-15" d="M666.413,639.33s-11.855,8.257-21.983,5.689-12.88-1.608-14.06,1.707c-1.09,3.051,28.289,19.186,32.972,21.734a.538.538,0,0,0,.781-.348c.319-1.354,1.09-4.255,1.916-4.479,1.075-.289,5.972-9.456,5.7-13.059S666.413,639.33,666.413,639.33Z" transform="translate(-357.439 -392.811)"/>
      <path id="Path_237" data-name="Path 237" class="cls-13" d="M804.563,594.979,771.218,590.5S716.97,616.38,710.5,616.877l1.493,11.447h9.954c3.982,0,42.8-8.461,48.276-16.921a13.328,13.328,0,0,1,9.456,1c4.977,2.488,52.755,17.917,52.755,17.917Z" transform="translate(-397.704 -368.283)"/>
      <path id="Path_238" data-name="Path 238" class="cls-14" d="M804.563,594.979,771.218,590.5S716.97,616.38,710.5,616.877l1.493,11.447h9.954c3.982,0,42.8-8.461,48.276-16.921a13.328,13.328,0,0,1,9.456,1c4.977,2.488,52.755,17.917,52.755,17.917Z" transform="translate(-397.704 -368.283)"/>
      <path id="Path_239" data-name="Path 239" class="cls-11" d="M692.975,486.5l-5.474,6.968,5.474,2.986,7.963-5.972Z" transform="translate(-345.341 -244.375)"/>
      <path id="Path_240" data-name="Path 240" class="cls-13" d="M873.549,572.952s-17.917-15.339-19.156-18.121-30.613-21.694-32.6-22.192-8.461-3.982-14.931,7.963-30.359,40.81-30.359,40.81,7.465,10.451,9.954,9.954,30.359-23.889,32.35-35.336c0,0,1.991-4.479,6.47,2.986s33.345,43.3,38.82,42.8c0,0,21.4,3.484,25.88-4.977S873.549,572.952,873.549,572.952Z" transform="translate(-430.857 -338.79)"/>
      <path id="Path_241" data-name="Path 241" class="cls-16" d="M973.666,467.247s-6.221,2.737-6.719,14.184S955.5,512.287,955.5,512.287l1,22.894s11.944,11.944,12.94,19.41,9.456,12.442,9.456,12.442,9.954-4.977,11.447-11.447,2.488-22.4,4.977-28.368,1-43.3,1-43.3l-7.465-12.94-3.981-4.479-10.451,11.944S968.689,470.73,973.666,467.247Z" transform="translate(-520.771 -305.996)"/>
      <path id="Path_242" data-name="Path 242" class="cls-14" d="M957.979,528.4s-1.493-17.917,2.986-21.9l8.958-25.382s3.235-12.193,2.737-13.189-11.7,9.7-11.7,9.7L953.5,504.016l1.991,27.87Z" transform="translate(-519.766 -306.684)"/>
      <path id="Path_243" data-name="Path 243" class="cls-13" d="M956.979,528.153s-1.493-17.917,2.986-21.9l8.958-25.382s3.484-12.442,2.986-13.438-11.944,9.954-11.944,9.954L952.5,503.767l1.991,27.87Z" transform="translate(-519.264 -306.434)"/>
      <path id="Path_244" data-name="Path 244" class="cls-11" d="M918,554.271s-24.884-7.963-26.378-9.954-17.419-14.931-22.894-5.972,20.405,11.447,20.405,11.447l26.377,15.926Z" transform="translate(-476.805 -340.514)"/>
      <path id="Path_245" data-name="Path 245" class="cls-14" d="M748.259,643.074l-7.366-1.324s-12.064,15.453-18.35,13.885-12.069,5.2-5.43,7.366c6,1.961,31.9,4.7,36.829,5.211a.727.727,0,0,0,.8-.707,15.848,15.848,0,0,1,1.145-5.609c1.329-3.26,0-10.262-.368-12.94a12.856,12.856,0,0,0-1.448-4.479Z" transform="translate(-399.545 -394.026)"/>
      <path id="Path_246" data-name="Path 246" class="cls-15" d="M748.021,644.044l-7.366-1.324s-12.064,15.453-18.34,13.89-12.069,5.2-5.43,7.366c6,1.961,31.9,4.7,36.829,5.211a.727.727,0,0,0,.8-.707,15.845,15.845,0,0,1,1.1-5.6c1.329-3.26,0-10.262-.368-12.94a12.857,12.857,0,0,0-1.448-4.479Z" transform="translate(-399.432 -394.514)"/>
      <circle id="Ellipse_33" data-name="Ellipse 33" class="cls-14" cx="16.066" cy="16.066" r="16.066" transform="translate(436.457 128.527)"/>
      <circle id="Ellipse_34" data-name="Ellipse 34" class="cls-11" cx="16.066" cy="16.066" r="16.066" transform="translate(434.671 128.527)"/>
      <path id="Path_247" data-name="Path 247" class="cls-13" d="M997.621,465.5s18.912,6.47,18.912,19.908-10.451,34.838-10.949,52.257-27.87,14.931-27.87,14.931-3.982-58.727,0-63.206S999.612,467.491,997.621,465.5Z" transform="translate(-531.041 -305.494)"/>
      <path id="Path_248" data-name="Path 248" class="cls-14" d="M984.226,508.341s-6.968,30.857-23.391,25.382c0,0-8.461,12.442-2.488,17.917,0,0,14.433,3.484,23.889-5.972s16.424-12.94,17.917-24.387,2.488-27.373-2.488-25.88S984.226,508.341,984.226,508.341Z" transform="translate(-521.129 -320.464)"/>
      <path id="Path_249" data-name="Path 249" class="cls-13" d="M985.226,507.341s-6.968,30.857-23.391,25.382c0,0-8.461,12.442-2.488,17.917,0,0,14.433,3.484,23.889-5.972s16.424-12.94,17.917-24.387,2.489-27.373-2.488-25.88S985.226,507.341,985.226,507.341Z" transform="translate(-521.631 -319.962)"/>
      <path id="Path_250" data-name="Path 250" class="cls-16" d="M797.706,680a.456.456,0,0,1-.045.139,14.571,14.571,0,0,0-.781,2.633c.119-.388.259-.786.418-1.185A7.22,7.22,0,0,0,797.706,680Z" transform="translate(-441.094 -413.24)"/>
      <path id="Path_251" data-name="Path 251" class="cls-16" d="M717.248,679.541c-2.05-.672-2.911-1.777-2.946-2.941-.846,1.622-.314,3.444,2.583,4.39,6,1.961,31.9,4.7,36.829,5.211a.727.727,0,0,0,.8-.712h0a.732.732,0,0,0-.652-.742C748.458,684.17,723.166,681.472,717.248,679.541Z" transform="translate(-399.431 -411.532)"/>
      <path id="Path_252" data-name="Path 252" class="cls-16" d="M631.072,651.365a6.123,6.123,0,0,1,.5-1.055,4.853,4.853,0,0,0-1.169,1.931c-1.09,3.051,28.288,19.186,32.972,21.734a.537.537,0,0,0,.781-.353h0a.537.537,0,0,0-.264-.6C658.714,670.193,630,654.381,631.072,651.365Z" transform="translate(-357.454 -398.326)"/>
      <path id="Path_253" data-name="Path 253" class="cls-16" d="M702.666,686.139c-.264.07-.523.423-.766.906l.08-.03c.219-.06.592-.5,1.045-1.145a.966.966,0,0,1-.358.269Z" transform="translate(-393.385 -416.188)"/>
      <path id="Path_254" data-name="Path 254" class="cls-14" d="M967.36,425.854c-1.4,3.1-1.7,6.584-2.727,9.829A21.614,21.614,0,0,1,951.31,449.5c5.171,2.06,11.273-.458,15.269-4.638s6.341-9.745,8.585-15.16c5.8,3.9,5.1,12.87,7.047,19.853a22.018,22.018,0,0,0,11.721,14.01,20.987,20.987,0,0,0,17.952-.363c-5.32-6.47-12.9-15.393-11.994-24.033.732-7-4.29-12.343-3.947-19.365.5-9.954-3.315-15.01-10.451-21.4-4.171-3.738,2.394-9.008-2.986-7.465-2.115.607-4.345-1.657-6.42-.911-4.111,1.493-8.6.916-12.83,1.911C941.267,397.1,969.411,421.335,967.36,425.854Z" transform="translate(-518.666 -267.505)"/>
      <path id="Path_255" data-name="Path 255" class="cls-17" d="M968.36,424.7c-1.4,3.1-1.7,6.584-2.727,9.829a21.613,21.613,0,0,1-13.323,13.816c5.171,2.06,11.273-.458,15.269-4.638s6.341-9.745,8.585-15.16c5.8,3.9,5.1,12.87,7.047,19.853a22.018,22.018,0,0,0,11.721,14.01,20.987,20.987,0,0,0,17.952-.363c-5.32-6.47-12.4-13.9-11.5-22.54.732-7-.358-14.189,0-21.206.5-9.954-4.385-19.569-11.526-25.959-4.171-3.738-10.685-4.215-12.766-3.484-4.111,1.493-8.6.916-12.83,1.911C942.267,395.949,970.411,420.182,968.36,424.7Z" transform="translate(-519.169 -266.85)"/>
    </g>
  </g>
</svg>
