<svg xmlns="http://www.w3.org/2000/svg" width="126.097" height="88.839" viewBox="0 0 126.097 88.839">
  <defs>
    <style>
      .cls-1 {
        fill: #9aadcb;
      }

      .cls-2 {
        fill: #d0cde1;
      }

      .cls-3 {
        fill: #3f3d56;
      }

      .cls-4 {
        fill: #ffb8b8;
      }

      .cls-5 {
        fill: #2f2e41;
      }

      .cls-6 {
        fill: #575a89;
      }

      .cls-7 {
        fill: #abc0e2;
      }
    </style>
  </defs>
  <g id="Group_60" data-name="Group 60" transform="translate(-998.818 -1755.477)">
    <g id="Group_11" data-name="Group 11">
      <path id="Path_208" data-name="Path 208" class="cls-1" d="M175.15,83.353c-8.084-.281-15.784-2.89-23.136-5.746s-14.634-6.019-22.524-7.532c-5.075-.973-10.879-1.11-14.967,1.61-3.936,2.623-5.207,7.138-5.891,11.333-.515,3.155-.817,6.475.593,9.429.978,2.051,2.715,3.775,3.916,5.746,4.181,6.835,1.227,15.263-3.3,21.937-2.123,3.131-4.59,6.12-6.229,9.45s-2.4,7.151-.964,10.551c1.423,3.372,4.811,5.9,8.481,7.68,7.456,3.616,16.238,4.65,24.808,5.236,18.964,1.3,38.029.736,57.043.174A167.485,167.485,0,0,0,214,151.714c3.845-.6,7.813-1.563,10.6-3.878a8.883,8.883,0,0,0,2.047-11.6c-3.983-6.182-14.989-7.717-17.777-14.352-1.531-3.651.042-7.718,2.268-11.105,4.776-7.265,12.782-13.638,13.2-21.942.29-5.7-3.56-11.415-9.51-14.114-6.237-2.839-14.887-2.479-19.487,2.2C190.613,81.749,182.287,83.6,175.15,83.353Z" transform="translate(896.932 1686.039)"/>
    </g>
    <g id="undraw_stand_out_1oag" transform="translate(998.817 1760.395)">
      <path id="Path_181" data-name="Path 181" class="cls-2" d="M747.912,266.752c-.219-.564.094-.847.219-1.348a7.386,7.386,0,0,0-.282-2.069s-1.317-5.424-1.724-6.49a1.96,1.96,0,0,0-.922-.97c-.025-.138-.062-.228-.113-.253a8.762,8.762,0,0,0-1.871-.685,3.059,3.059,0,0,0-.4-.539,1.274,1.274,0,0,0,.142-.66c-.038-.592-.486-1.122-.428-1.711a7.329,7.329,0,0,1,.5-1.246,1.466,1.466,0,0,0-.167-1.156l.278.3a1.04,1.04,0,0,0-.078-1.256c-.294-.324-.785-.446-1.013-.82s-.108-.906-.33-1.3c-.542-.959-1.931-.279-2.762-.614a2.294,2.294,0,0,0-.986-.278,3.851,3.851,0,0,0-.962.18,2.032,2.032,0,0,0-1.1.79.686.686,0,0,1,.086-.082.446.446,0,0,1,.661.088.391.391,0,0,1,.031.186.874.874,0,0,1-.506.631,1.905,1.905,0,0,0-.677.49c-.262.383-.108.9-.108,1.361a1.973,1.973,0,0,1-.748,1.532l.885-.362a6.685,6.685,0,0,0-.817,2.4l1.2-.988a5.259,5.259,0,0,0-.786,2.335l.96-.984a.485.485,0,0,1,.063.253l-.1.386a2.521,2.521,0,0,1-.118.224c-.154.265-.314.592-.17.863h0a1.9,1.9,0,0,1-.892,1.273,1.486,1.486,0,0,0,1.413-.674,1.261,1.261,0,0,0,.15.228l.049.061-.141.094-.378.252s-2.477.5-2.32,1.442l.023.137-.713,1.211-1.035,3.512a4.141,4.141,0,0,0-.439,1.6,7.768,7.768,0,0,1,0,1.5c0,.846-.408,1.191,0,1.881s1.63,2.7,1.63,2.7l.269.2a1.254,1.254,0,0,0,.014.363C733.646,271.988,736,284,736,284s-1.191,9.5,1.223,10.1c.3.075.6.142.889.2l.365,2.4-.219,3.041s-1.662,3.762,1.379,3.982,1.662-3.261,1.662-3.261a1.652,1.652,0,0,0,.188-.972c-.031-.279-.292-1.731-.548-3.128,1.154-.138.938-1.363.784-1.9a.312.312,0,0,0,.14-.174,5.354,5.354,0,0,0-.193-1.307c-.12-.685-.324-1.795-.463-2.547l.75.122,3.167-18.561s.021-.3.011-.728a11.754,11.754,0,0,1,1.337-.589c1.035-.408,1.442-1.913,1.787-2.54S748.131,267.317,747.912,266.752Zm-11.243-11.818a.671.671,0,0,1,.347-.118c-.027.146-.278.188-.488.265A.621.621,0,0,1,736.669,254.935Zm-1.58,9.341c.254.417-.206,1.548-.62,2.446-.237-.2-.485-.14-.195-.721a2.951,2.951,0,0,0,.345-1.191,1.148,1.148,0,0,1,.346-.817,1.643,1.643,0,0,0,.125.284Zm-.951,3.6c.144-.059.361-.148.655-.248-.141.185-.3.405-.463.646a.486.486,0,0,1-.192-.4Zm10.169.411c-.191-.2-.345-.384-.471-.546q.355.093.722.2a.86.86,0,0,0,.365-.024c.011.217.011.526.011.526l-.343.238a2.016,2.016,0,0,0-.284-.394Zm.973-1.087-.011.01a2.079,2.079,0,0,0-.084-.365,13.735,13.735,0,0,1-.374-2.779l.593,2s.031,1-.124,1.139Z" transform="translate(-656.555 -228.696)"/>
      <path id="Path_182" data-name="Path 182" class="cls-2" d="M605.4,230.77s-3.217-5.528-3.317-6.132-1.709-1.709-1.709-1.709a3.327,3.327,0,0,0-2.4-.714c.357-.3-.918-.494-1.018-.693s-.4-.2-.8-.5-1.406-.05-1.406-.05a3.7,3.7,0,0,1-.312-1,2.8,2.8,0,0,0,.662-1.813c0-.007,0-.014,0-.022l.077.121c.188-1.128.521-2.065-.113-3.094a3.469,3.469,0,0,0-1.974-1.509l-.6.483.235-.563a3.193,3.193,0,0,0-.6-.034l-.543.7.225-.674a3.436,3.436,0,0,0-2.37,1.41,3.045,3.045,0,0,0,.035,3.385l.006-.021a2.813,2.813,0,0,0,1.438,2.278l.171,1.366h0a.936.936,0,0,1-.56.247c-.3,0-.6.8-.6.8s-.171.086-.355.493a13.274,13.274,0,0,0-2.459,2.047,1.181,1.181,0,0,0-.6,1.279c.1,1.407,0,7.941,0,7.941s-.9,5.528-.6,5.931-.1,1.709-.1,1.709l.3.067v.335s-.907,4.2.5,4.021c2.312-.3.6-3.719.6-3.719v-.391l.4.089s.2-1.407.6-1.508c.14-.035.3-.411.459-.886l.144,1.187.629-.14.175.642a.866.866,0,0,0,.135.061l-.135.743a5.213,5.213,0,0,0,0,1.307c.051.253,1.917,5.671,3.754,10.98l-.035,1.283s-.9,1.005-.7,1.709-.5,6.534-.5,6.534l-.6,2.915.152.047-.139.511a1.013,1.013,0,0,0-.314.247,16.517,16.517,0,0,0-1.809,3.518s-1.809,2.714,1.005,2.613,3.016-1.106,3.016-1.106.4-2.613.4-2.714-.2-1.134-.2-1.134l-.078-.086.054-1.254.526.162s.5-2.613.9-2.915a14.173,14.173,0,0,0,.941-2.787c.436,1.256.859,5.6,1,5.994a1.428,1.428,0,0,0-.128.211,24.418,24.418,0,0,1-1.508,2.513s-3.217,1.91,0,2.412a5.585,5.585,0,0,0,2.714-.5c.9-.6,3.317-1.508,3.317-1.709s-.6-3.156-1.206-2.835h0l-.4-.929.4-.156-2.545-11.423a5.748,5.748,0,0,0,.132-.74c0-.526,1.3-10.776,1.633-13.376,1.458.413,2.79-2.607,2.79-2.607l.33-.595.474.293s.4-1.005,1.005-1.106,1.709-5.428,1.709-6.132A3.272,3.272,0,0,0,605.4,230.77Zm-4.683,7.875a2.712,2.712,0,0,0-.343-.437,12.455,12.455,0,0,0,.6-2.111,26.793,26.793,0,0,0-.3-4.724l-.009-.246a6.924,6.924,0,0,1,1.114,1.754.754.754,0,0,0,.3.6l-.6,2.111a12.5,12.5,0,0,0-.5,1.508,5.126,5.126,0,0,0-.1.9l.143.088Z" transform="translate(-528.85 -200.506)"/>
      <path id="Path_183" data-name="Path 183" class="cls-2" d="M245.976,250.524l.536-.121-2.211-6.232-4.775-1.759-.052.055a2.53,2.53,0,0,1-.652-1.416,2.814,2.814,0,0,0,1.312-4.132c.393-.094.534-.451.666-.877a1.763,1.763,0,0,0-.25-.054l.186-.416-.326-.029.083-.389-.416.287a.85.85,0,0,0-.142-.811,1.623,1.623,0,0,0-.7-.491,3.1,3.1,0,0,0-3.185.557l-.03-.117a4.043,4.043,0,0,0-1.544,2.676,4.129,4.129,0,0,0,1.026,2.947c-.006-.036-.011-.072-.017-.108q.042.059.088.115l.081,3.059-.2.173s-3.383,1.531-3.515,3.359h0c-.2.89-.3,5.514-.3,5.514h.278l-.278,1.809-1.809,7.036s-2.312,3.016-.3,3.619c1.249.375,1.606-1.075,1.7-2.226a.707.707,0,0,0,.716.517l.1.008c-.951,2.456-.305,10.445-.305,10.445-.5,1.005,5.428,7.941,5.428,7.941l.357-.19.077.155c-.2.019-.334.036-.334.036v3.116s-.9,3.116.3,3.719a.859.859,0,0,0,.949-.211c-.059.962-.145,2.4-.145,2.724,0,.5,1.307,1.407,1.307,1.407s.3,1.106,2.714,1.106.6-2.915.6-2.915l-1.307-2.915s-.1.048-.394-.193l.106-1.166.589.052.8-11.761s.7-10.454.8-12.062a11.2,11.2,0,0,0-.036-1.546l2.951-6.093Zm-2.178,3.9-.3,1.051v-2.324Zm-12.549,7.454c0-.368-.016-.619-.016-.619l1.965-3.93-.055,1.216A11.963,11.963,0,0,0,231.25,261.879Zm4.608,11.343,1.91-6.735,1.106,8.142-.079,2.96a4.719,4.719,0,0,1-.323-.849C238.17,275.533,235.858,273.221,235.858,273.221Z" transform="translate(-215.448 -218.4)"/>
      <path id="Path_184" data-name="Path 184" class="cls-2" d="M311.375,276.057c-.942-.388-2.77-1.219-2.992-1.662s-1.33-3.878-1.33-3.878l-.285.021c-.037-1.56-.194-7.608-.435-8.331,0,0,1.163-9.584-1.163-13.407l-.419-1.694a9.454,9.454,0,0,0,.031-2.517c-.111-.332,1.274-1.385.886-2.05s-1.44-2.936-1.44-2.936a3.637,3.637,0,0,0-1.385-2.77s-.437-2.475-2.407-2.512c-.266-.465-.639-1.2-.529-1.533.117-.352.566-1.451.82-2.065a2.65,2.65,0,0,0,.387-.215,4.877,4.877,0,0,0-.338-8.855,1.5,1.5,0,1,0-2.893-.536,1.494,1.494,0,0,1,1.668-2.046,1.91,1.91,0,0,0-1.54,2.656,4.711,4.711,0,0,0-2.811,4.421,4.759,4.759,0,0,0,2.462,4.26,2.829,2.829,0,0,1-1,2.274,2.591,2.591,0,0,0-1.43-.319c-.2-.157-.5-.208-.916.2a7.563,7.563,0,0,0-1.551,4.321c0,1.33.166,9.03.166,9.03s-.886.332-.277.831a.719.719,0,0,0,.448.166l.605,4.487s-.388,4.321,1.108,4.377a.592.592,0,0,0,.335-.082l-1.11,5.013a16.7,16.7,0,0,0-4.543,4.931,26.3,26.3,0,0,0-1.8,3.329l-.365-.227-1.274,2.438s-2.825,1.717-2.216,2.992A3.825,3.825,0,0,0,285,275.78l.388-.166.72,1.33a4.012,4.012,0,0,0,4.931,1.33,1.114,1.114,0,0,0,0-1.33c-.5-.72-1.773-2.271-1.773-2.271l.831-4.21-.172-.107,5.269-6.375a8.5,8.5,0,0,0,2.105-1.773c.554-.831,3.989-9.418,3.989-9.418l1.939,8.975a25.586,25.586,0,0,0,.388,5.374,22.809,22.809,0,0,1,.53,3.591l-.142.01.332,2.493s-1.44,3.546-.443,3.823a14.605,14.605,0,0,0,2.161.388l.111-.388s4.266,2.327,5.817.609C311.984,277.664,312.317,276.445,311.375,276.057Zm-15.18-27.2c.166.166.111.942.111.942l-.332,2.161-.332,1.5a16.091,16.091,0,0,0-.277-2.108l-.153-4.141a.32.32,0,0,0,.1.041c.111,0,.055-.942.055-.942s.065-.168.145-.434c.215.645.478,1.065.8,1.154l.055.72s-.72.332-.055.332a.523.523,0,0,0,.114-.017l-.059.294S296.029,248.689,296.2,248.856Z" transform="translate(-263.764 -205.238)"/>
      <ellipse id="Ellipse_19" data-name="Ellipse 19" class="cls-3" cx="44.534" cy="0.734" rx="44.534" ry="0.734" transform="translate(2.13 71.932)"/>
      <ellipse id="Ellipse_20" data-name="Ellipse 20" class="cls-3" cx="48.988" cy="1.896" rx="48.988" ry="1.896" transform="translate(13.264 72.666)"/>
      <ellipse id="Ellipse_21" data-name="Ellipse 21" class="cls-3" cx="24.041" cy="1.896" rx="24.041" ry="1.896" transform="translate(29.169 75.48)"/>
      <ellipse id="Ellipse_22" data-name="Ellipse 22" class="cls-3" cx="10.705" cy="0.979" rx="10.705" ry="0.979" transform="translate(77.251 78.661)"/>
      <ellipse id="Ellipse_23" data-name="Ellipse 23" class="cls-3" cx="5.077" cy="0.979" rx="5.077" ry="0.979" transform="translate(68.197 81.964)"/>
      <ellipse id="Ellipse_24" data-name="Ellipse 24" class="cls-3" cx="5.077" cy="0.979" rx="5.077" ry="0.979" transform="translate(26.844 77.805)"/>
      <path id="Path_185" data-name="Path 185" class="cls-4" d="M465.909,550.822l.489,3.426,2.447-.245-.245-3.548Z" transform="translate(-408.906 -483.111)"/>
      <path id="Path_186" data-name="Path 186" class="cls-4" d="M349.845,550.822l-.489,3.426L346.909,554l.245-3.548Z" transform="translate(-304.466 -483.111)"/>
      <path id="Path_187" data-name="Path 187" class="cls-5" d="M449.472,369.9a9.027,9.027,0,0,0-1.713,6.607c.489,4.037,1.346,13.214,1.346,13.214L449.717,406l3.915-.245.612-13.825,1.958-11.134,5.261,12.969s2.569,12.112,2.692,12.112,3.67-.367,3.67-.367l-1.713-14.315s-2.692-20.8-4.282-21.166S449.472,369.9,449.472,369.9Z" transform="translate(-407.64 -337.674)"/>
      <path id="Path_188" data-name="Path 188" class="cls-5" d="M587.348,678.277s-2.2-1.468-3.059.245a3.157,3.157,0,0,0-.122,2.936s.734.489.367.979a2.3,2.3,0,0,0,2.692,3.181c3.181-.489,1.591-3.793,1.591-3.793Z" transform="translate(-527.165 -607.874)"/>
      <path id="Path_189" data-name="Path 189" class="cls-5" d="M451.884,678.277s2.2-1.468,3.059.245a3.157,3.157,0,0,1,.122,2.936s-.734.489-.367.979a2.3,2.3,0,0,1-2.692,3.181c-3.181-.489-1.591-3.793-1.591-3.793Z" transform="translate(-409.685 -607.874)"/>
      <path id="Path_190" data-name="Path 190" class="cls-4" d="M486.768,171.59s1.1,3.059.245,4.772,1.346,3.67,1.346,3.67,5.75-2.936,5.016-4.4-1.958-3.426-1.713-4.649Z" transform="translate(-441.939 -163.156)"/>
      <circle id="Ellipse_25" data-name="Ellipse 25" class="cls-4" cx="3.915" cy="3.915" r="3.915" transform="translate(43.055 1.766)"/>
      <path id="Path_191" data-name="Path 191" class="cls-2" d="M468.981,203.7a4.408,4.408,0,0,0,6.858-1.363l3.052,1.73,1.591,18.6s-8.931,5.139-13.213.734l.612-17.251Z" transform="translate(-424.825 -190.678)"/>
      <path id="Path_192" data-name="Path 192" class="cls-6" d="M327.036,91.488l-5.516,3.666,1.958,9.054-2.569,14.07,4.16-6.24Z" transform="translate(-281.647 -80.297)"/>
      <path id="Path_193" data-name="Path 193" class="cls-6" d="M520.513,190.169l1.355.894,5.506,1.958-.856,15.171,2.325,9.788-3.3,1.713s-.612-4.649-4.4-6.974S519.648,190.865,520.513,190.169Z" transform="translate(-470.249 -179.999)"/>
      <path id="Path_194" data-name="Path 194" class="cls-4" d="M445.736,384.478l1.591,1.1s-2.019,2.141-2.386,1.774a1,1,0,0,1-.306-.8l-.367-.856Z" transform="translate(-404.639 -350.535)"/>
      <path id="Path_195" data-name="Path 195" class="cls-4" d="M529.638,382.532l-.541.85s-1.591.734-1.223,1.224,3.426,1.591,4.037.489l.612-1.1Z" transform="translate(-477.967 -348.827)"/>
      <path id="Path_196" data-name="Path 196" class="cls-6" d="M434.4,227.478l-.856.122-1.407,9.115s-.551,1.652.061,5.567,1.218,6.465,1.218,6.465l2.7-1.938-1.224-3.181L436.479,232Z" transform="translate(-393.791 -212.743)"/>
      <path id="Path_197" data-name="Path 197" class="cls-6" d="M543.183,211.478l1.958.245a10.675,10.675,0,0,1,2.569,4.772,93.909,93.909,0,0,1,.245,9.421l-5.628,8.931-3.059-2.2,4.282-7.586L541.47,216Z" transform="translate(-488.016 -198.701)"/>
      <path id="Path_198" data-name="Path 198" class="cls-5" d="M476.061,109.162a4.574,4.574,0,0,0-2.6-1.989l-.8.636.309-.742a4.211,4.211,0,0,0-.786-.045l-.716.92.3-.889a4.53,4.53,0,0,0-3.125,1.859,4.021,4.021,0,0,0-.169,4.464c.246-.756.544-1.465.79-2.221a2.237,2.237,0,0,0,.583,0l.3-.7.084.669c.927-.081,2.3-.258,3.182-.421l-.086-.513.512.426c.269-.062.429-.118.416-.161.654,1.054,1.3,1.728,1.956,2.782C476.458,111.755,476.9,110.519,476.061,109.162Z" transform="translate(-425.357 -107.022)"/>
      <ellipse id="Ellipse_26" data-name="Ellipse 26" class="cls-4" cx="0.265" cy="0.53" rx="0.265" ry="0.53" transform="translate(50.222 5.028)"/>
      <path id="Path_199" data-name="Path 199" class="cls-7" d="M805.572,656.2c.113,3.861-2.143,5.276-4.974,5.359l-.2,0q-.2,0-.39-.007c-2.561-.106-4.587-1.466-4.692-5.056-.109-3.716,4.5-8.544,4.85-8.9h0l.02-.02S805.459,652.343,805.572,656.2Z" transform="translate(-712.738 -581.448)"/>
      <path id="Path_200" data-name="Path 200" class="cls-3" d="M820.645,660.981l1.8-2.674-1.795,2.962,0,.3q-.2,0-.39-.007l.089-3.869,0-.03,0-.006.009-.366-1.97-2.86,1.967,2.586.007.077.067-2.923-1.7-2.965,1.706,2.451-.018-6.055v0l.113,4.772,1.55-1.939-1.545,2.35.034,2.614L822,652.852l-1.421,2.936.019,1.454,2.075-3.554-2.068,4.061Z" transform="translate(-732.989 -581.452)"/>
      <path id="Path_201" data-name="Path 201" class="cls-7" d="M269.572,609.2c.113,3.861-2.143,5.276-4.974,5.359l-.2,0q-.2,0-.39-.007c-2.561-.106-4.587-1.466-4.692-5.056-.109-3.716,4.5-8.544,4.85-8.9h0l.02-.02S269.459,605.343,269.572,609.2Z" transform="translate(-242.316 -540.198)"/>
      <path id="Path_202" data-name="Path 202" class="cls-3" d="M284.645,613.982l1.8-2.675-1.795,2.962,0,.3q-.2,0-.39-.007l.089-3.869,0-.03,0-.006.009-.366-1.969-2.86,1.967,2.586.007.077.067-2.923-1.7-2.965,1.706,2.451-.018-6.055v0l.113,4.772,1.55-1.939-1.545,2.35.034,2.614L286,605.852l-1.421,2.936.019,1.454,2.075-3.554-2.069,4.061Z" transform="translate(-262.568 -540.202)"/>
      <path id="Path_203" data-name="Path 203" class="cls-7" d="M700.473,726.242a2.724,2.724,0,0,1-2.92,3.146l-.115,0q-.116,0-.229,0c-1.5-.062-2.693-.86-2.754-2.968-.064-2.181,2.644-5.015,2.847-5.225h0l.012-.012S700.407,723.976,700.473,726.242Z" transform="translate(-624.215 -646.043)"/>
      <path id="Path_204" data-name="Path 204" class="cls-3" d="M709.321,729.046l1.056-1.57-1.053,1.739,0,.177c-.077,0-.153,0-.229,0l.052-2.271V727.1l0,0,.005-.215L708,725.2l1.155,1.518,0,.045.04-1.716-1-1.74,1,1.439-.01-3.554v0l.066,2.8.91-1.138-.907,1.379.02,1.535.837-1.5L709.281,726l.011.853,1.218-2.086-1.214,2.384Z" transform="translate(-636.102 -646.045)"/>
      <path id="Path_205" data-name="Path 205" class="cls-5" d="M1079.55,157.968l.011-.034,0,.015Z" transform="translate(-962.196 -151.708)"/>
      <path id="Path_206" data-name="Path 206" class="cls-3" d="M858.355,204.646l9.062-13.476L858.374,206.1l.019,1.516q-.992.008-1.965-.033l.449-19.492-.012-.15.017-.029.043-1.842L847,171.657l9.912,13.03.035.389.339-14.727-8.572-14.938,8.6,12.351-.09-30.511v-.1l0,.1.569,24.047,7.812-9.768-7.786,11.839.17,13.173,7.189-12.856-7.162,14.793.095,7.325,10.454-17.909-10.422,20.464Z" transform="translate(-758.097 -133.466)"/>
      <path id="Path_207" data-name="Path 207" class="cls-3" d="M128.086,355.087l6.166-9.17L128.1,356.074l.013,1.032q-.675.005-1.337-.022l.306-13.264-.008-.1.011-.02.029-1.253-6.753-9.8,6.745,8.866.024.265.231-10.021-5.833-10.165,5.849,8.4-.061-20.762v-.069l0,.068.387,16.363,5.316-6.647-5.3,8.056.116,8.964,4.892-8.748-4.874,10.066.065,4.984,7.114-12.187L127.941,344Z" transform="translate(-120.359 -284.43)"/>
    </g>
  </g>
</svg>
